<?xml version="1.0" standalone="no"?>
<!DOCTYPE svg PUBLIC "-//W3C//DTD SVG 20010904//EN"
 "http://www.w3.org/TR/2001/REC-SVG-20010904/DTD/svg10.dtd">
<svg version="1.0" xmlns="http://www.w3.org/2000/svg"
 width="1246.000000pt" height="1280.000000pt" viewBox="0 0 1246.000000 1280.000000"
 preserveAspectRatio="xMidYMid meet">
<metadata>
Created by potrace 1.15, written by Peter Selinger 2001-2017
</metadata>
<g transform="translate(0.000000,1280.000000) scale(0.100000,-0.100000)"
fill="white" stroke="none">
<path d="M7046 11699 c-218 -25 -283 -38 -265 -52 2 -2 80 -43 172 -91 100
-51 186 -89 210 -92 50 -6 626 61 640 75 7 7 -54 42 -172 100 l-183 91 -76 -1
c-43 -1 -189 -14 -326 -30z"/>
<path d="M6340 11620 c-250 -28 -290 -35 -290 -49 0 -5 78 -50 173 -100 144
-76 182 -91 223 -93 72 -2 623 64 642 78 13 9 -17 27 -166 103 l-181 91 -83
-1 c-46 -1 -189 -14 -318 -29z"/>
<path d="M5597 11539 c-257 -30 -319 -42 -301 -58 5 -5 79 -48 164 -96 143
-81 160 -88 220 -92 74 -5 658 61 673 76 11 11 5 15 -183 117 l-145 78 -85 2
c-47 2 -201 -11 -343 -27z"/>
<path d="M7495 11485 c-148 -19 -273 -34 -277 -34 -5 -1 -8 -7 -8 -13 0 -7 82
-55 183 -106 169 -86 186 -93 242 -93 85 0 605 67 617 79 8 8 -45 39 -176 104
-227 112 -206 110 -581 63z"/>
<path d="M4843 11455 c-300 -35 -333 -40 -333 -54 0 -17 313 -194 357 -202 29
-6 141 4 372 31 182 21 336 42 341 45 6 3 10 10 10 14 0 5 -75 50 -166 101
-158 88 -169 93 -232 96 -37 1 -194 -12 -349 -31z"/>
<path d="M6783 11401 c-166 -20 -305 -40 -310 -44 -4 -5 0 -15 10 -22 45 -33
332 -178 367 -186 29 -7 122 1 356 31 175 21 321 43 326 48 11 11 -33 38 -217
129 -85 43 -158 72 -185 76 -25 3 -176 -11 -347 -32z"/>
<path d="M4031 11365 c-316 -37 -334 -41 -328 -58 2 -6 72 -54 156 -106 124
-77 161 -95 201 -99 53 -5 681 64 718 79 12 4 22 12 22 16 0 5 -73 51 -163
103 l-162 95 -80 2 c-44 1 -208 -14 -364 -32z"/>
<path d="M6175 11331 c-77 -10 -209 -27 -292 -36 -84 -10 -160 -23 -169 -30
-14 -10 10 -27 157 -109 156 -88 180 -99 234 -103 57 -4 669 68 682 80 11 12
-13 28 -179 117 -202 109 -208 110 -433 81z"/>
<path d="M3213 11274 c-295 -34 -353 -44 -353 -63 0 -5 68 -53 151 -107 139
-90 157 -98 208 -102 54 -3 708 70 744 83 9 4 17 11 17 15 0 5 -71 52 -157
106 l-158 97 -75 3 c-42 2 -209 -12 -377 -32z"/>
<path d="M7940 11260 c-157 -21 -286 -38 -287 -39 -17 -7 26 -35 182 -116 131
-68 199 -98 233 -101 28 -4 159 9 322 30 324 43 330 44 330 60 0 7 -88 54
-195 106 -159 76 -205 94 -248 96 -29 1 -180 -15 -337 -36z"/>
<path d="M5237 11221 c-170 -21 -313 -43 -318 -48 -13 -13 -8 -17 171 -122 84
-50 170 -94 190 -98 21 -4 159 9 345 31 369 45 387 48 392 62 2 5 -76 54 -172
108 -163 91 -181 99 -238 102 -34 1 -201 -14 -370 -35z"/>
<path d="M2360 11179 c-184 -21 -346 -43 -359 -49 -31 -14 -32 -13 126 -123
156 -110 152 -108 226 -108 104 0 750 79 765 94 11 12 -12 30 -138 112 -147
95 -193 115 -255 114 -16 -1 -181 -19 -365 -40z"/>
<path d="M7212 11171 c-161 -21 -298 -43 -303 -48 -8 -8 8 -21 53 -46 212
-117 298 -159 338 -169 37 -8 99 -3 359 31 172 23 320 45 328 49 21 12 12 18
-190 122 -153 79 -185 92 -235 95 -31 2 -189 -13 -350 -34z"/>
<path d="M4470 11130 c-357 -43 -383 -47 -377 -63 2 -7 75 -57 162 -112 150
-93 163 -100 220 -103 82 -5 716 74 733 92 11 11 -16 30 -160 113 -142 83
-182 102 -223 105 -27 2 -187 -12 -355 -32z"/>
<path d="M1463 11077 c-346 -40 -404 -52 -377 -76 32 -29 262 -195 282 -202
38 -15 93 -11 453 31 372 43 404 49 404 70 0 7 -64 58 -142 112 -133 92 -145
98 -200 102 -33 3 -211 -13 -420 -37z"/>
<path d="M6475 11079 c-332 -42 -348 -45 -343 -60 2 -6 83 -56 181 -110 132
-74 190 -101 225 -106 43 -5 648 69 688 84 27 10 9 27 -82 76 -214 116 -280
146 -324 150 -25 2 -180 -13 -345 -34z"/>
<path d="M3620 11030 c-358 -43 -380 -47 -380 -64 0 -18 294 -207 342 -220 31
-8 108 -2 396 33 356 44 402 52 402 70 0 12 -284 191 -330 207 -50 18 -88 16
-430 -26z"/>
<path d="M8422 11030 c-287 -39 -312 -43 -312 -57 0 -4 91 -55 203 -112 197
-101 204 -103 267 -103 86 2 609 77 622 90 13 13 18 10 -210 122 -140 69 -195
91 -235 94 -30 3 -170 -11 -335 -34z"/>
<path d="M5678 10981 c-331 -43 -351 -47 -345 -64 2 -6 83 -58 181 -116 l177
-104 67 1 c88 0 683 79 696 92 14 14 10 18 -183 125 -159 90 -178 98 -235 101
-33 2 -195 -14 -358 -35z"/>
<path d="M1050 10985 c-11 -13 -9 -71 9 -318 29 -388 37 -460 55 -496 9 -16
75 -78 147 -137 122 -99 133 -106 145 -89 10 13 12 39 8 89 -3 39 -16 213 -28
386 -18 240 -27 323 -40 347 -10 20 -64 69 -139 124 -67 51 -127 96 -133 101
-7 5 -16 2 -24 -7z"/>
<path d="M2724 10925 c-193 -23 -356 -45 -362 -49 -7 -4 -12 -11 -12 -16 0
-11 279 -206 315 -220 42 -16 83 -13 467 35 250 31 367 50 377 60 12 12 -6 27
-135 111 -162 106 -198 124 -259 122 -22 0 -198 -19 -391 -43z"/>
<path d="M7661 10930 c-254 -34 -316 -48 -299 -65 22 -22 387 -206 419 -211
48 -8 663 74 687 92 12 9 -21 30 -184 115 -192 100 -201 104 -269 106 -39 1
-196 -15 -354 -37z"/>
<path d="M4835 10875 c-181 -24 -331 -44 -332 -44 -37 -10 299 -228 372 -242
43 -8 67 -6 470 47 148 20 278 40 288 46 27 14 19 21 -173 134 -157 92 -168
97 -230 100 -38 2 -202 -15 -395 -41z"/>
<path d="M6885 10829 c-159 -22 -294 -45 -300 -50 -14 -14 2 -24 200 -134 117
-65 185 -97 215 -101 52 -6 688 80 704 96 6 6 6 13 0 19 -5 5 -90 53 -189 107
l-180 97 -80 3 c-51 2 -184 -12 -370 -37z"/>
<path d="M1820 10820 c-340 -41 -381 -48 -387 -67 -2 -6 56 -56 130 -110 150
-113 158 -118 207 -127 34 -6 796 85 833 99 10 4 16 12 14 18 -2 6 -70 58
-153 116 l-149 106 -85 2 c-50 1 -221 -14 -410 -37z"/>
<path d="M8915 10789 c-278 -39 -336 -52 -319 -69 5 -5 102 -56 216 -114 245
-126 211 -121 538 -72 124 19 251 37 282 41 31 4 65 13 75 20 16 12 -8 26
-197 119 -165 82 -227 108 -265 111 -28 2 -173 -13 -330 -36z"/>
<path d="M4020 10775 c-184 -24 -340 -44 -346 -45 -5 0 -19 -6 -29 -14 -17
-12 -6 -22 135 -116 172 -115 202 -130 260 -130 62 0 731 90 752 101 10 6 16
14 13 18 -4 8 -290 188 -330 209 -47 23 -128 19 -455 -23z"/>
<path d="M6102 10726 c-172 -24 -318 -48 -325 -55 -7 -7 -7 -14 -1 -20 5 -5
88 -56 184 -112 161 -95 180 -103 235 -107 69 -4 703 82 719 98 15 15 -3 28
-194 135 -218 122 -193 119 -618 61z"/>
<path d="M1385 10721 c-5 -18 37 -673 50 -765 3 -21 12 -51 20 -66 15 -29 281
-250 301 -250 6 0 14 9 17 21 11 40 -42 781 -58 826 -14 35 -36 57 -152 144
-75 56 -144 104 -154 106 -11 3 -19 -2 -24 -16z"/>
<path d="M8174 10684 c-309 -43 -344 -49 -344 -64 0 -4 91 -57 203 -116 195
-105 205 -109 272 -112 68 -3 638 77 664 93 6 3 9 10 6 15 -3 5 -94 54 -203
110 -139 72 -212 104 -247 109 -36 5 -136 -5 -351 -35z"/>
<path d="M3128 10664 c-330 -42 -398 -54 -398 -71 0 -5 71 -57 158 -118 114
-80 169 -112 203 -119 37 -7 118 0 410 38 362 47 429 59 429 77 0 14 -316 219
-354 230 -45 13 -65 11 -448 -37z"/>
<path d="M5264 10616 c-317 -44 -344 -49 -344 -64 0 -5 82 -59 181 -121 143
-89 191 -113 228 -118 49 -6 706 80 749 97 12 5 22 14 22 19 0 5 -82 58 -182
117 l-183 109 -80 2 c-49 1 -200 -15 -391 -41z"/>
<path d="M7370 10574 c-191 -27 -309 -49 -318 -58 -11 -11 17 -31 186 -125
153 -85 211 -113 248 -117 53 -7 673 79 707 98 28 15 18 22 -201 138 -176 94
-198 103 -255 106 -37 1 -183 -15 -367 -42z"/>
<path d="M2215 10551 c-203 -26 -380 -51 -393 -55 -13 -4 -22 -14 -20 -21 2
-8 71 -65 153 -127 l150 -112 65 -4 c57 -3 532 52 762 89 105 17 104 26 -9
107 -179 127 -234 162 -251 162 -9 0 -33 2 -52 4 -19 3 -201 -17 -405 -43z"/>
<path d="M9410 10534 c-162 -25 -299 -50 -305 -55 -15 -15 9 -30 228 -140 116
-59 215 -102 240 -105 26 -4 150 11 334 40 161 25 297 46 301 46 5 0 17 6 27
14 18 13 1 23 -205 125 -170 83 -237 111 -275 115 -31 3 -162 -13 -345 -40z"/>
<path d="M4420 10505 c-368 -50 -370 -50 -370 -69 0 -8 78 -65 173 -127 169
-112 173 -113 237 -117 79 -4 767 90 784 108 14 14 13 15 -194 143 l-165 102
-70 2 c-39 1 -213 -17 -395 -42z"/>
<path d="M6563 10462 c-177 -26 -327 -52 -333 -58 -15 -15 -1 -24 213 -149
144 -84 177 -99 222 -103 34 -3 173 13 377 43 325 48 368 57 368 74 0 5 -91
59 -201 121 -187 104 -206 113 -263 116 -37 2 -189 -16 -383 -44z"/>
<path d="M1757 10463 c-11 -11 -8 -132 13 -458 22 -353 25 -371 49 -411 16
-27 299 -264 315 -264 22 0 23 75 1 441 -19 332 -25 401 -41 437 -16 34 -46
62 -167 152 -148 110 -158 116 -170 103z"/>
<path d="M8665 10425 c-336 -52 -335 -51 -335 -68 0 -15 389 -224 448 -240 37
-10 84 -5 373 40 182 28 336 56 342 62 15 15 5 22 -227 138 -163 82 -214 103
-257 107 -35 3 -156 -11 -344 -39z"/>
<path d="M3540 10389 c-201 -27 -376 -53 -389 -59 -18 -8 -20 -14 -12 -24 6
-7 83 -64 172 -126 150 -105 164 -112 217 -117 60 -5 766 88 810 107 12 5 22
14 22 19 0 18 -343 234 -384 242 -53 10 -18 14 -436 -42z"/>
<path d="M5710 10344 c-204 -30 -320 -50 -329 -59 -8 -8 -13 -16 -10 -19 2 -2
85 -55 184 -116 127 -80 194 -115 230 -122 43 -9 98 -4 400 41 337 49 395 61
395 79 0 4 -87 59 -192 122 l-193 114 -85 2 c-58 2 -185 -12 -400 -42z"/>
<path d="M7851 10304 c-274 -41 -328 -54 -316 -74 3 -5 96 -59 208 -121 198
-111 203 -114 272 -117 82 -3 678 87 697 106 8 8 8 15 2 21 -5 5 -99 58 -209
117 l-200 108 -80 3 c-54 1 -174 -12 -374 -43z"/>
<path d="M2630 10270 c-431 -58 -425 -57 -439 -74 -10 -11 18 -36 142 -129 85
-63 164 -120 175 -126 11 -6 47 -11 79 -12 65 -1 786 96 821 111 12 5 22 15
22 22 -1 11 -268 205 -324 234 -47 25 -118 21 -476 -26z"/>
<path d="M9923 10266 c-149 -24 -278 -48 -287 -53 -8 -4 -12 -13 -8 -19 4 -6
106 -61 227 -123 163 -83 233 -113 270 -117 35 -4 140 10 354 46 167 28 308
53 312 56 5 3 9 10 9 15 0 5 -102 60 -227 122 -224 111 -228 112 -302 114 -50
1 -168 -13 -348 -41z"/>
<path d="M4890 10229 c-376 -52 -405 -58 -405 -79 0 -7 82 -67 182 -132 161
-106 188 -120 235 -125 52 -5 734 89 786 108 12 5 22 14 22 21 -1 11 -267 184
-354 229 -55 29 -115 26 -466 -22z"/>
<path d="M7380 10233 c-14 -2 -164 -24 -334 -49 -291 -42 -346 -54 -346 -72 0
-4 91 -62 203 -127 254 -150 214 -145 662 -76 340 53 380 65 334 94 -101 63
-393 218 -420 223 -61 10 -74 11 -99 7z"/>
<path d="M9175 10149 c-170 -28 -314 -54 -320 -60 -6 -6 -4 -14 5 -23 32 -30
437 -236 476 -242 43 -6 643 86 693 107 21 9 22 12 10 24 -8 7 -111 63 -229
124 -176 90 -225 111 -270 115 -38 4 -150 -10 -365 -45z"/>
<path d="M2134 10165 c-7 -17 33 -795 43 -824 20 -63 36 -81 185 -202 88 -71
163 -129 168 -129 28 0 29 49 9 436 -14 287 -24 412 -35 446 -14 43 -27 55
-171 164 -86 64 -165 119 -175 122 -11 2 -20 -2 -24 -13z"/>
<path d="M3950 10099 c-190 -27 -355 -53 -367 -59 -13 -5 -23 -15 -23 -22 0
-7 78 -67 172 -132 129 -90 184 -122 218 -129 38 -7 120 2 436 48 214 31 397
61 407 66 9 6 17 14 17 19 0 12 -320 227 -366 246 -50 21 -118 16 -494 -37z"/>
<path d="M1114 10099 c-10 -16 -6 -89 20 -434 18 -246 27 -319 42 -352 24 -54
266 -268 291 -259 18 7 19 -38 -17 488 -12 176 -25 289 -34 310 -7 18 -29 47
-47 64 -49 45 -235 194 -242 194 -3 0 -9 -5 -13 -11z"/>
<path d="M6195 10060 c-176 -26 -328 -51 -337 -55 -10 -4 -18 -13 -18 -20 0
-12 338 -227 396 -251 19 -8 51 -14 73 -14 74 0 745 110 760 124 16 17 21 13
-234 162 l-170 99 -75 2 c-48 1 -189 -15 -395 -47z"/>
<path d="M8390 10026 c-315 -50 -350 -58 -350 -76 0 -8 347 -206 422 -240 24
-11 65 -20 93 -20 51 0 692 104 702 114 16 15 -23 42 -215 144 -137 73 -229
116 -263 122 -28 6 -54 9 -58 9 -3 -1 -152 -25 -331 -53z"/>
<path d="M10488 9991 c-158 -27 -292 -52 -298 -56 -5 -3 -10 -12 -10 -18 0 -7
108 -67 240 -134 224 -115 243 -123 296 -123 52 0 611 92 649 107 9 3 14 11
13 17 -2 6 -111 64 -242 130 -214 106 -245 119 -300 122 -41 2 -154 -12 -348
-45z"/>
<path d="M2991 9966 c-275 -40 -377 -58 -389 -70 -19 -19 -32 -7 148 -142 171
-128 200 -144 260 -144 53 0 804 108 838 121 12 5 22 14 22 22 0 7 -80 69
-177 137 l-177 124 -76 2 c-51 2 -194 -14 -449 -50z"/>
<path d="M5680 9982 c-187 -23 -718 -106 -727 -114 -7 -6 -13 -15 -13 -20 0
-5 86 -65 190 -134 177 -117 195 -126 248 -131 41 -4 161 11 422 52 351 55
400 65 400 85 0 5 -88 63 -196 130 -162 102 -204 123 -247 129 -29 3 -63 5
-77 3z"/>
<path d="M7552 9896 c-184 -30 -339 -59 -345 -65 -16 -16 -6 -23 230 -160 176
-103 202 -115 252 -119 72 -5 730 102 750 122 17 17 6 25 -248 166 -169 94
-188 103 -245 106 -40 2 -173 -15 -394 -50z"/>
<path d="M9738 9864 c-172 -29 -321 -55 -331 -59 -10 -4 -16 -13 -14 -19 2 -6
108 -67 235 -134 202 -108 238 -124 289 -129 43 -3 141 10 373 52 173 30 319
60 323 64 5 5 6 14 3 19 -3 6 -108 63 -233 127 -167 86 -241 119 -279 124 -41
6 -121 -4 -366 -45z"/>
<path d="M2543 9868 c-9 -16 -8 -78 12 -493 18 -361 25 -402 78 -452 69 -65
309 -253 323 -253 25 0 27 48 15 358 -18 433 -25 525 -47 567 -13 23 -74 75
-186 160 -92 69 -172 125 -177 125 -5 0 -13 -6 -18 -12z"/>
<path d="M4385 9794 c-369 -55 -408 -66 -375 -98 8 -8 93 -69 188 -135 140
-96 183 -121 220 -127 35 -5 146 8 440 54 216 34 401 66 412 72 11 6 17 16 14
23 -3 6 -91 68 -197 137 l-192 125 -75 2 c-49 1 -200 -17 -435 -53z"/>
<path d="M1450 9763 c0 -80 37 -630 46 -688 4 -22 13 -52 20 -67 17 -33 284
-270 299 -265 18 6 17 109 -5 440 -22 335 -24 355 -46 399 -15 30 -279 248
-301 248 -9 0 -13 -18 -13 -67z"/>
<path d="M6700 9763 c-348 -56 -391 -67 -360 -97 8 -7 100 -66 205 -131 134
-83 204 -120 240 -127 44 -10 93 -4 419 51 204 34 376 67 383 73 10 8 10 14 3
23 -20 24 -411 247 -448 256 -55 13 -68 11 -442 -48z"/>
<path d="M8898 9727 c-168 -29 -310 -55 -313 -59 -18 -17 16 -40 226 -158 282
-157 243 -153 674 -76 171 30 318 58 328 61 41 17 24 29 -243 171 l-205 109
-80 2 c-59 2 -162 -12 -387 -50z"/>
<path d="M11055 9699 c-148 -27 -282 -54 -297 -60 -61 -25 -67 -47 -110 -457
-42 -406 -42 -426 7 -438 36 -9 583 102 615 125 52 38 58 61 100 415 46 387
48 426 22 449 -24 22 -24 22 -337 -34z"/>
<path d="M3440 9655 c-396 -60 -415 -64 -415 -87 0 -18 316 -261 361 -278 14
-6 50 -10 80 -10 68 0 817 116 845 130 10 6 19 16 19 23 0 12 -321 242 -369
264 -46 21 -158 12 -521 -42z"/>
<path d="M6045 9660 c-60 -10 -216 -34 -345 -54 -246 -38 -280 -47 -280 -70 0
-7 90 -72 201 -144 157 -103 211 -133 247 -138 36 -6 136 7 430 56 210 35 390
68 399 75 9 7 13 17 10 22 -11 18 -396 254 -430 264 -45 13 -105 10 -232 -11z"/>
<path d="M8095 9594 c-328 -55 -370 -65 -362 -87 2 -6 102 -70 223 -142 277
-164 235 -159 679 -80 176 31 330 59 343 62 54 13 23 39 -190 158 -116 65
-227 124 -247 131 -56 20 -103 16 -446 -42z"/>
<path d="M10335 9574 c-351 -63 -351 -63 -381 -86 -14 -12 -32 -36 -40 -53
-15 -36 -77 -698 -72 -771 2 -37 8 -51 28 -65 24 -17 32 -16 330 43 194 39
314 67 331 79 47 33 56 76 94 444 19 193 35 363 35 378 0 29 -39 78 -62 76 -7
-1 -125 -21 -263 -45z"/>
<path d="M2979 9544 c-15 -18 -14 -96 5 -546 12 -274 17 -322 34 -361 16 -37
50 -69 193 -186 96 -77 182 -141 191 -141 11 0 20 10 24 27 4 14 0 215 -8 447
-13 376 -17 425 -34 461 -15 31 -56 68 -189 168 -204 154 -199 151 -216 131z"/>
<path d="M1811 9522 c-15 -27 34 -755 54 -807 11 -31 47 -68 152 -160 177
-155 170 -150 182 -126 17 31 -26 762 -48 821 -14 39 -37 62 -166 168 -82 67
-153 122 -157 122 -4 0 -12 -8 -17 -18z"/>
<path d="M4885 9479 c-368 -58 -429 -72 -422 -93 6 -19 380 -276 417 -286 19
-5 47 -10 62 -10 33 0 796 126 821 135 41 16 13 43 -174 165 -195 128 -237
149 -299 148 -19 0 -201 -26 -405 -59z"/>
<path d="M7215 9449 c-192 -33 -355 -65 -362 -72 -7 -7 -9 -17 -5 -23 10 -15
391 -251 435 -269 56 -23 107 -19 445 40 380 66 409 73 416 91 6 16 4 18 -260
173 -180 105 -195 112 -255 116 -48 3 -153 -11 -414 -56z"/>
<path d="M9475 9423 c-217 -39 -318 -61 -336 -74 -51 -36 -56 -62 -84 -441
-30 -415 -30 -443 5 -470 25 -18 29 -17 349 47 178 35 331 70 340 77 30 24 50
53 57 82 3 16 21 193 39 395 34 380 33 411 -5 431 -25 13 -14 15 -365 -47z"/>
<path d="M3897 9326 c-218 -35 -404 -69 -412 -76 -8 -7 -15 -18 -15 -24 0 -6
44 -42 96 -81 53 -38 98 -74 102 -80 6 -10 -4 -3 -132 93 -38 29 -75 52 -83
52 -31 0 -33 -50 -18 -471 14 -401 16 -423 37 -469 20 -42 51 -71 211 -200
113 -92 194 -150 202 -146 8 3 17 17 21 32 4 14 2 217 -4 449 -10 398 -12 426
-32 472 -11 26 -33 58 -48 71 l-27 22 37 -20 c26 -15 55 -21 100 -22 72 0 834
124 867 142 12 6 20 17 18 23 -4 12 -329 245 -379 273 -58 31 -129 25 -541
-40z m-196 -283 c13 -16 12 -17 -3 -4 -10 7 -18 15 -18 17 0 8 8 3 21 -13z
m40 -30 c13 -16 12 -17 -3 -4 -10 7 -18 15 -18 17 0 8 8 3 21 -13z m40 -30
c13 -16 12 -17 -3 -4 -17 13 -22 21 -14 21 2 0 10 -8 17 -17z"/>
<path d="M6315 9300 c-192 -32 -359 -63 -372 -69 -13 -6 -23 -16 -23 -23 0
-13 391 -275 434 -291 37 -15 138 -10 259 13 65 12 123 20 129 18 6 -2 -50
-15 -125 -27 -76 -13 -149 -31 -166 -42 -64 -39 -65 -41 -74 -502 -8 -370 -7
-420 6 -441 32 -49 46 -48 436 30 203 41 374 80 388 89 54 36 60 73 73 425 18
516 19 484 -9 514 -32 34 -48 34 -292 -10 -110 -19 -205 -34 -211 -32 -6 2 90
21 213 42 206 36 269 53 269 75 0 10 -394 256 -444 276 -55 23 -114 18 -491
-45z"/>
<path d="M8685 9284 c-132 -24 -271 -48 -308 -55 -81 -13 -131 -50 -147 -107
-5 -21 -19 -210 -31 -421 -20 -375 -20 -385 -2 -409 10 -14 27 -28 38 -32 26
-9 675 121 707 142 50 33 56 64 83 426 31 424 31 456 5 482 -28 28 -63 25
-345 -26z"/>
<path d="M1175 9227 c-11 -42 44 -704 61 -748 21 -51 267 -284 290 -275 15 6
16 19 10 99 -4 50 -15 216 -26 369 -15 231 -22 282 -38 315 -17 32 -252 250
-283 261 -4 2 -11 -8 -14 -21z"/>
<path d="M2187 9208 c-10 -37 33 -749 49 -805 13 -49 23 -59 162 -180 81 -70
155 -134 165 -142 39 -31 41 -8 28 311 -19 432 -25 507 -47 551 -13 25 -71 79
-174 162 -85 69 -160 125 -166 125 -6 0 -14 -10 -17 -22z"/>
<path d="M5470 9160 c-157 -27 -331 -56 -388 -66 -116 -20 -144 -33 -123 -58
8 -9 101 -77 207 -151 208 -145 242 -160 337 -150 41 3 45 3 20 -4 -46 -12
-81 -37 -103 -74 -19 -30 -20 -53 -20 -462 0 -379 2 -433 16 -453 33 -48 42
-47 452 34 329 66 389 81 414 102 57 49 57 45 64 500 l7 420 -32 32 c-29 30
-35 31 -84 26 l-52 -6 50 13 c61 16 77 25 73 42 -6 24 -399 278 -453 292 -66
17 -58 18 -385 -37z m703 -317 c-7 -2 -21 -2 -30 0 -10 3 -4 5 12 5 17 0 24
-2 18 -5z m-78 -13 c-16 -4 -41 -8 -55 -8 -22 0 -22 1 5 8 17 4 41 8 55 8 22
0 22 -1 -5 -8z m-92 -17 c-7 -2 -21 -2 -30 0 -10 3 -4 5 12 5 17 0 24 -2 18
-5z m-113 -19 c-36 -7 -74 -13 -85 -12 -27 1 93 26 125 26 14 0 -4 -6 -40 -14z
m-117 -21 c-7 -2 -21 -2 -30 0 -10 3 -4 5 12 5 17 0 24 -2 18 -5z m-78 -13
c-16 -4 -41 -8 -55 -8 -22 0 -22 1 5 8 17 4 41 8 55 8 22 0 22 -1 -5 -8z m-92
-17 c-7 -2 -21 -2 -30 0 -10 3 -4 5 12 5 17 0 24 -2 18 -5z"/>
<path d="M7745 9120 c-342 -61 -356 -66 -399 -123 -19 -26 -21 -54 -35 -430
-8 -221 -11 -414 -8 -429 4 -15 19 -35 34 -45 25 -17 37 -15 372 51 190 38
358 75 373 82 14 8 36 29 48 49 20 32 23 62 41 363 28 490 28 486 -1 517 -17
18 -33 25 -59 24 -20 0 -184 -27 -366 -59z"/>
<path d="M4384 8979 c-221 -37 -411 -72 -423 -78 -11 -7 -21 -17 -21 -24 1 -7
80 -70 176 -142 97 -71 178 -134 182 -140 3 -5 -1 -5 -9 1 -113 88 -342 254
-350 254 -29 0 -31 -52 -20 -476 6 -236 15 -445 21 -465 16 -56 37 -77 228
-232 212 -172 216 -175 234 -159 9 7 19 8 28 2 8 -6 31 -10 50 -10 60 0 780
148 813 167 16 10 38 34 48 53 18 32 19 64 19 453 0 457 -1 462 -58 486 -24
10 -87 2 -431 -58 -390 -69 -427 -77 -463 -108 -15 -13 -18 -12 -28 9 -7 13
-26 35 -44 50 l-31 28 34 -17 c22 -10 58 -16 100 -15 75 1 836 133 869 151 12
6 22 17 22 24 0 7 -92 76 -205 155 -175 122 -212 144 -257 151 -68 12 -21 18
-484 -60z"/>
<path d="M1513 8933 c-11 -28 37 -698 53 -752 12 -42 31 -64 156 -179 78 -73
145 -132 149 -132 19 0 19 61 -2 385 -15 243 -27 365 -38 400 -14 44 -31 63
-155 172 -77 68 -144 123 -148 123 -5 0 -12 -8 -15 -17z"/>
<path d="M2586 8884 c-6 -15 12 -442 29 -713 10 -144 14 -150 203 -316 92 -80
172 -145 179 -145 23 0 25 47 13 342 -16 411 -24 511 -46 552 -21 39 -329 295
-355 296 -9 0 -20 -7 -23 -16z"/>
<path d="M10990 8774 c-118 -24 -239 -49 -268 -55 -57 -11 -108 -48 -123 -88
-11 -29 -79 -648 -79 -721 0 -35 5 -52 20 -65 20 -18 27 -17 312 46 302 66
330 76 360 132 18 34 97 728 86 757 -19 51 -29 51 -308 -6z"/>
<path d="M10175 8610 c-275 -57 -291 -61 -317 -89 -15 -17 -32 -47 -37 -68 -6
-21 -24 -195 -41 -387 -27 -319 -28 -352 -14 -373 8 -13 22 -27 30 -30 9 -3
151 25 317 62 261 58 306 71 331 94 15 14 32 37 38 51 10 28 78 649 78 721 0
54 -21 79 -66 78 -16 0 -159 -27 -319 -59z"/>
<path d="M1864 8616 c-5 -22 30 -637 42 -721 3 -22 13 -54 22 -71 18 -33 293
-294 310 -294 5 0 13 7 16 16 12 30 -33 735 -50 786 -13 40 -34 63 -164 177
-82 72 -154 131 -159 131 -6 0 -13 -11 -17 -24z"/>
<path d="M3014 8533 c-4 -15 -2 -192 5 -393 12 -359 23 -456 54 -499 6 -10 90
-86 185 -170 140 -122 177 -150 188 -140 18 14 18 141 3 544 -8 219 -15 302
-27 340 -16 47 -29 60 -197 197 -99 81 -186 147 -192 148 -7 0 -16 -12 -19
-27z"/>
<path d="M9401 8454 c-334 -68 -343 -71 -376 -135 -15 -28 -69 -683 -63 -760
2 -31 10 -47 29 -61 25 -19 25 -19 340 51 190 43 324 78 339 89 50 37 57 67
89 432 17 190 31 358 31 373 0 29 -39 78 -62 76 -7 -1 -154 -30 -327 -65z"/>
<path d="M1236 8395 c-7 -21 42 -660 55 -710 9 -32 39 -69 147 -177 75 -76
139 -138 143 -138 17 0 18 45 4 238 -8 114 -17 241 -20 282 -11 154 -18 206
-32 242 -10 24 -58 77 -144 157 -71 67 -133 121 -138 121 -5 0 -11 -7 -15 -15z"/>
<path d="M8560 8286 c-168 -34 -315 -69 -328 -77 -13 -8 -32 -29 -44 -47 -18
-30 -22 -69 -41 -416 -23 -418 -22 -429 30 -442 38 -10 658 129 693 155 57 41
59 52 88 455 31 436 32 430 -48 433 -25 1 -182 -27 -350 -61z"/>
<path d="M2237 8291 c-9 -36 34 -724 49 -777 13 -48 26 -63 171 -198 87 -80
163 -146 169 -146 23 0 25 39 14 237 -6 109 -15 277 -19 373 -6 123 -14 187
-26 216 -13 33 -51 72 -172 178 -86 75 -162 136 -168 136 -7 0 -15 -9 -18 -19z"/>
<path d="M3464 8164 c-7 -29 3 -524 15 -724 5 -84 14 -137 25 -161 19 -41 375
-359 401 -359 9 0 19 10 24 23 7 19 -1 552 -12 777 -6 129 -17 144 -232 318
-103 84 -193 152 -201 152 -7 0 -17 -12 -20 -26z"/>
<path d="M7694 8112 c-188 -39 -331 -74 -347 -85 -57 -37 -59 -50 -75 -469
-12 -295 -13 -394 -4 -413 24 -52 38 -51 400 31 185 41 350 83 366 92 60 35
63 52 87 471 21 381 21 384 2 410 -16 20 -29 26 -64 28 -24 1 -188 -28 -365
-65z"/>
<path d="M1577 8093 c-4 -3 -7 -34 -7 -67 0 -109 39 -626 51 -669 9 -34 37
-69 155 -187 115 -116 146 -142 156 -132 20 20 -25 708 -50 765 -13 29 -62 82
-154 170 -75 70 -138 127 -140 127 -3 0 -8 -3 -11 -7z"/>
<path d="M6813 7934 c-204 -41 -373 -80 -387 -89 -14 -9 -34 -35 -45 -58 -18
-39 -20 -74 -26 -439 l-7 -397 26 -26 c14 -14 35 -25 48 -25 55 1 721 158 746
177 57 41 60 57 76 470 9 226 12 392 7 406 -10 27 -28 42 -56 49 -11 2 -183
-28 -382 -68z"/>
<path d="M2640 7955 c-19 -22 14 -737 36 -807 13 -41 38 -69 170 -195 86 -82
165 -152 176 -157 34 -16 39 9 33 159 -19 501 -27 623 -41 667 -14 42 -33 63
-172 184 -86 76 -164 143 -173 151 -14 11 -18 11 -29 -2z"/>
<path d="M10845 7864 c-272 -62 -281 -65 -312 -98 -17 -19 -34 -49 -38 -68 -3
-18 -21 -179 -39 -358 -38 -358 -37 -372 18 -378 38 -5 564 126 593 147 46 34
52 61 93 403 22 183 40 343 40 356 0 27 -33 62 -57 61 -10 0 -144 -30 -298
-65z"/>
<path d="M5869 7746 c-196 -40 -371 -78 -388 -86 -18 -7 -43 -29 -57 -49 l-24
-36 0 -418 0 -418 25 -24 c14 -15 36 -25 53 -25 47 0 744 160 773 177 15 9 36
33 48 53 20 35 21 57 27 427 4 214 4 401 0 416 -7 28 -51 58 -83 56 -10 -1
-178 -34 -374 -73z"/>
<path d="M3943 7783 c-9 -24 -9 -41 1 -473 7 -332 10 -381 27 -426 18 -46 39
-68 219 -225 113 -99 209 -175 222 -177 13 -1 43 -5 68 -8 34 -4 134 15 425
81 413 93 418 95 451 172 21 50 20 802 -1 843 -18 34 -43 50 -80 50 -20 0
-688 -130 -791 -155 -11 -2 -32 -15 -47 -29 l-26 -24 -18 33 c-20 37 -405 355
-429 355 -8 0 -18 -8 -21 -17z"/>
<path d="M1918 7748 c-2 -13 6 -178 18 -368 16 -260 26 -355 38 -385 19 -45
53 -82 208 -226 97 -91 108 -98 117 -81 12 23 -23 669 -40 746 -11 44 -23 60
-113 146 -214 205 -220 209 -228 168z"/>
<path d="M10097 7695 c-153 -35 -289 -70 -302 -79 -55 -36 -57 -47 -92 -425
-34 -375 -34 -403 8 -416 29 -10 604 133 634 157 14 11 32 32 40 48 9 17 28
159 51 379 34 330 36 352 20 376 -12 19 -25 25 -49 24 -17 0 -157 -29 -310
-64z"/>
<path d="M1297 7586 c-3 -8 6 -162 19 -343 19 -242 30 -338 42 -365 24 -53
272 -312 285 -299 13 13 -27 655 -45 716 -9 31 -41 70 -144 173 -73 72 -137
132 -142 132 -6 0 -12 -6 -15 -14z"/>
<path d="M3054 7589 c-9 -15 -6 -180 10 -524 11 -235 16 -287 32 -322 13 -30
69 -89 191 -203 95 -88 178 -160 183 -160 23 0 26 58 18 325 -11 392 -21 512
-44 557 -18 35 -354 338 -374 338 -5 0 -12 -5 -16 -11z"/>
<path d="M9316 7520 c-314 -72 -329 -78 -361 -140 -9 -17 -23 -156 -40 -388
-25 -336 -26 -364 -11 -387 12 -17 26 -25 46 -25 38 0 583 135 627 155 62 28
68 55 103 442 32 361 32 381 -4 405 -20 13 -56 7 -360 -62z"/>
<path d="M2292 7413 c-12 -22 23 -695 39 -758 9 -32 42 -71 172 -202 133 -135
163 -160 175 -150 16 13 15 39 -9 512 -15 299 -9 284 -181 446 -198 185 -184
175 -196 152z"/>
<path d="M8675 7375 c-77 -18 -216 -50 -310 -71 -160 -35 -172 -40 -207 -74
-23 -22 -38 -49 -42 -70 -3 -19 -14 -188 -25 -375 -21 -391 -20 -404 50 -405
41 0 639 149 665 166 51 34 60 77 84 415 29 414 29 408 1 431 -30 24 -50 22
-216 -17z"/>
<path d="M1625 7258 c-11 -28 43 -684 59 -721 15 -38 268 -309 292 -315 19 -5
18 74 -5 423 -13 204 -23 291 -35 320 -18 43 -270 305 -294 305 -7 0 -15 -6
-17 -12z"/>
<path d="M7651 7144 c-343 -78 -354 -82 -387 -146 -20 -39 -50 -749 -33 -789
22 -55 38 -54 399 36 200 50 343 91 359 102 53 39 58 65 76 393 23 440 23 434
1 459 -13 14 -30 21 -55 20 -20 -1 -182 -34 -360 -75z"/>
<path d="M3494 7184 c-4 -15 -1 -196 5 -402 14 -395 20 -449 64 -496 51 -55
357 -336 366 -336 30 0 32 44 22 433 -6 215 -15 406 -20 424 -5 18 -17 45 -26
60 -20 33 -366 336 -389 341 -10 2 -18 -7 -22 -24z"/>
<path d="M10753 6997 c-306 -78 -324 -87 -343 -156 -12 -42 -70 -585 -70 -653
0 -47 18 -78 44 -78 35 0 574 154 590 168 40 37 49 78 87 397 21 176 39 328
39 338 0 20 -34 57 -52 56 -7 0 -140 -33 -295 -72z"/>
<path d="M2681 7047 c-8 -11 -7 -103 7 -383 17 -325 22 -375 39 -414 14 -31
71 -95 183 -205 155 -153 162 -159 176 -140 12 16 14 38 10 105 -4 47 -11 207
-16 355 -12 294 -14 313 -41 365 -15 29 -314 319 -338 328 -5 1 -13 -4 -20
-11z"/>
<path d="M6785 6949 c-212 -48 -360 -87 -374 -97 -14 -10 -34 -31 -45 -46 -20
-26 -21 -46 -29 -413 -7 -299 -6 -391 4 -409 26 -50 42 -48 418 46 193 48 362
95 376 104 54 36 57 52 73 455 15 402 15 407 -35 430 -13 6 -27 11 -31 10 -4
0 -164 -36 -357 -80z"/>
<path d="M1973 6913 c-3 -9 3 -168 15 -354 17 -282 24 -346 40 -381 12 -27 75
-101 165 -193 125 -130 146 -147 153 -130 12 29 -25 679 -42 734 -11 37 -39
71 -161 193 -81 81 -151 148 -156 148 -4 0 -10 -7 -14 -17z"/>
<path d="M10020 6814 c-281 -71 -296 -76 -327 -108 -17 -19 -34 -49 -37 -68
-9 -56 -56 -600 -56 -649 0 -45 20 -79 47 -79 6 0 143 36 305 80 265 71 296
82 320 109 15 17 31 47 36 68 6 21 24 182 42 357 l33 320 -27 23 c-15 13 -30
23 -34 22 -4 0 -140 -34 -302 -75z"/>
<path d="M1356 6805 c-11 -29 42 -650 58 -690 9 -20 64 -89 122 -153 163 -178
153 -169 164 -152 5 8 10 29 11 45 1 18 5 6 10 -27 4 -32 14 -69 21 -82 21
-40 279 -317 289 -311 13 9 11 115 -10 421 -16 231 -22 276 -39 310 -12 21
-81 102 -155 179 -116 120 -136 137 -143 121 -4 -11 1 -142 11 -293 10 -150
16 -275 13 -278 -2 -2 -12 118 -22 268 -10 151 -24 296 -32 325 -13 47 -31 70
-145 190 -72 76 -134 138 -138 140 -5 2 -11 -4 -15 -13z"/>
<path d="M5845 6737 c-198 -45 -371 -90 -384 -99 -13 -9 -32 -30 -42 -45 -18
-26 -19 -56 -19 -426 0 -241 4 -406 10 -417 5 -10 23 -23 40 -28 26 -9 83 2
390 78 199 50 373 96 389 104 54 29 65 58 72 211 4 77 8 257 9 400 l2 260 -27
22 c-14 13 -38 23 -53 22 -15 0 -189 -37 -387 -82z"/>
<path d="M3970 6785 c-10 -12 -11 -94 -5 -387 7 -385 13 -459 43 -514 22 -41
391 -384 412 -384 9 0 31 -7 49 -16 32 -16 42 -14 423 81 420 105 435 111 464
182 21 49 20 772 -1 812 -29 58 -39 57 -452 -35 -403 -90 -422 -95 -449 -125
-23 -26 -28 -24 -42 14 -8 23 -70 83 -212 207 -110 96 -204 176 -209 178 -4 1
-14 -4 -21 -13z"/>
<path d="M9256 6623 c-164 -41 -309 -81 -322 -89 -52 -35 -60 -76 -85 -429
-12 -181 -19 -343 -15 -358 13 -54 30 -53 361 38 186 50 314 90 327 102 43 39
49 69 78 396 17 177 30 334 30 350 0 31 -32 68 -57 66 -10 -1 -152 -35 -317
-76z"/>
<path d="M3086 6645 c-3 -13 -4 -55 -1 -92 3 -37 10 -198 16 -358 9 -239 15
-299 30 -340 16 -42 46 -76 195 -219 167 -161 177 -169 191 -150 10 14 13 35
9 79 -3 33 -8 175 -12 315 -7 304 -15 398 -40 444 -23 41 -346 346 -367 346
-8 0 -18 -11 -21 -25z"/>
<path d="M2336 6554 c-9 -23 32 -693 45 -738 8 -29 49 -80 166 -203 86 -90
161 -162 167 -160 6 2 12 24 14 50 5 78 -27 660 -39 702 -9 32 -44 74 -172
203 -89 89 -164 162 -168 162 -4 0 -10 -7 -13 -16z"/>
<path d="M8455 6425 c-159 -41 -305 -81 -323 -89 -64 -31 -70 -60 -91 -446
-19 -344 -18 -372 13 -392 6 -4 20 -8 31 -8 38 -1 630 164 658 182 52 37 56
56 83 428 24 325 25 352 10 375 -13 20 -25 25 -54 24 -20 0 -167 -34 -327 -74z"/>
<path d="M7617 6215 c-350 -88 -364 -94 -393 -161 -9 -21 -17 -140 -25 -382
-14 -377 -12 -396 34 -407 15 -4 151 28 358 84 317 86 336 93 366 125 17 19
34 49 37 68 14 80 42 684 33 711 -10 30 -35 48 -64 46 -10 0 -166 -38 -346
-84z"/>
<path d="M3523 6244 c-3 -8 0 -180 6 -382 9 -277 16 -380 27 -418 14 -46 36
-71 205 -240 174 -173 191 -187 205 -172 15 15 16 53 7 405 -9 382 -9 389 -33
440 -20 40 -64 87 -203 217 -97 91 -184 166 -192 166 -9 0 -18 -7 -22 -16z"/>
<path d="M10655 6156 c-143 -40 -270 -77 -282 -84 -47 -26 -59 -80 -93 -413
-35 -347 -35 -359 20 -359 43 0 540 148 570 169 50 36 56 63 95 394 42 356 41
368 -17 366 -18 0 -150 -33 -293 -73z"/>
<path d="M2718 6163 c-6 -24 19 -579 30 -668 5 -39 17 -86 26 -105 25 -52 330
-365 346 -355 10 6 11 53 6 214 -14 409 -23 535 -40 576 -20 47 -321 355 -347
355 -9 0 -19 -8 -21 -17z"/>
<path d="M2023 6104 c-3 -9 3 -165 15 -345 17 -272 24 -337 40 -372 18 -38
279 -337 302 -345 5 -2 12 7 15 20 9 36 -32 668 -46 711 -9 26 -56 84 -153
185 -77 81 -146 151 -153 155 -9 5 -16 2 -20 -9z"/>
<path d="M6758 6001 c-190 -48 -358 -96 -373 -105 -58 -38 -62 -67 -69 -454
-7 -405 -6 -412 69 -412 47 0 687 177 715 198 52 38 58 66 69 362 17 425 17
449 -5 470 -11 10 -28 20 -39 23 -11 3 -176 -34 -367 -82z"/>
<path d="M1414 6047 c-8 -23 32 -573 48 -641 9 -42 30 -72 136 -195 69 -80
129 -150 134 -156 5 -5 12 -5 19 2 13 13 -25 593 -43 663 -12 44 -63 108 -230
285 -48 51 -58 57 -64 42z"/>
<path d="M9932 5960 c-168 -46 -292 -86 -304 -97 -43 -38 -49 -69 -79 -401
-16 -179 -26 -334 -23 -344 14 -45 33 -43 327 43 155 45 295 88 310 96 52 26
64 73 97 395 16 163 30 310 30 326 0 33 -27 62 -56 61 -10 0 -146 -36 -302
-79z"/>
<path d="M5825 5770 l-350 -89 -37 -40 -38 -40 0 -389 0 -389 23 -21 c13 -12
33 -22 45 -22 41 0 727 191 752 209 61 44 61 49 70 444 4 199 4 372 -1 384
-10 28 -39 43 -81 42 -18 0 -190 -41 -383 -89z"/>
<path d="M9177 5755 c-320 -88 -338 -97 -357 -164 -6 -20 -21 -178 -34 -351
-25 -327 -24 -349 15 -373 22 -14 613 159 650 191 15 12 32 37 38 55 11 34 61
565 61 647 0 39 -4 52 -22 64 -12 9 -29 16 -38 15 -8 -1 -149 -38 -313 -84z"/>
<path d="M3991 5816 c-9 -11 -9 -110 -2 -404 9 -368 10 -392 31 -440 18 -42
60 -88 212 -237 111 -109 196 -185 208 -185 10 0 21 -4 25 -9 18 -29 72 -19
440 81 404 109 423 117 451 185 11 25 14 112 14 398 l0 367 -29 29 c-16 16
-39 29 -50 29 -12 0 -193 -43 -404 -96 -329 -82 -386 -99 -411 -122 -16 -15
-30 -22 -32 -17 -18 47 -64 98 -231 255 -106 99 -197 180 -202 180 -5 0 -14
-6 -20 -14z"/>
<path d="M3125 5757 c-4 -13 0 -181 8 -375 14 -347 15 -352 41 -404 37 -74
350 -398 368 -380 13 13 13 117 -2 503 -7 174 -15 260 -25 290 -12 34 -53 82
-188 217 -94 94 -177 172 -184 172 -7 0 -15 -10 -18 -23z"/>
<path d="M2384 5725 c-7 -17 22 -611 32 -675 9 -55 31 -89 132 -200 162 -179
203 -220 214 -213 11 6 8 156 -12 526 -7 140 -14 187 -29 222 -12 28 -73 100
-166 197 -80 84 -150 154 -156 156 -5 2 -12 -4 -15 -13z"/>
<path d="M1735 5690 c-9 -14 33 -607 47 -659 9 -34 42 -79 146 -200 74 -86
141 -157 148 -159 19 -5 18 37 -5 383 -12 189 -23 292 -33 316 -15 34 -274
329 -289 329 -4 0 -11 -4 -14 -10z"/>
<path d="M8400 5544 c-168 -46 -316 -92 -330 -102 -53 -38 -57 -64 -78 -417
-10 -182 -15 -340 -10 -353 18 -52 33 -50 364 47 170 50 320 99 334 109 54 40
58 59 80 359 30 408 30 401 1 424 -13 10 -31 19 -40 18 -9 -1 -153 -39 -321
-85z"/>
<path d="M10580 5351 c-140 -42 -265 -80 -278 -85 -12 -4 -34 -24 -47 -44 -22
-33 -27 -66 -54 -329 -35 -326 -36 -354 -19 -371 23 -23 11 -26 440 109 218
69 202 43 244 397 43 353 44 370 19 388 -10 8 -26 13 -34 13 -9 -1 -131 -36
-271 -78z"/>
<path d="M7579 5321 c-174 -48 -328 -95 -342 -104 -55 -36 -58 -53 -73 -425
-15 -373 -14 -381 35 -397 30 -9 670 181 699 208 46 43 50 63 66 353 25 433
25 413 -3 435 -13 10 -33 19 -45 18 -11 -1 -163 -40 -337 -88z"/>
<path d="M3553 5334 c-3 -9 -1 -175 6 -369 8 -257 15 -366 26 -403 14 -45 38
-75 197 -242 108 -113 189 -189 198 -188 13 3 15 47 12 368 -2 290 -6 376 -18
420 -15 51 -28 68 -202 243 -102 103 -192 187 -199 187 -8 0 -16 -7 -20 -16z"/>
<path d="M2767 5333 c-17 -17 13 -663 34 -733 10 -33 50 -83 171 -216 87 -95
162 -175 167 -179 25 -15 29 38 20 265 -14 355 -24 471 -44 509 -16 32 -322
361 -335 361 -4 0 -10 -3 -13 -7z"/>
<path d="M2074 5315 c-4 -9 2 -159 13 -333 15 -232 25 -327 37 -355 18 -45
284 -357 303 -357 17 0 17 47 -3 388 -12 202 -20 288 -32 319 -11 27 -67 97
-156 195 -77 84 -143 154 -148 156 -4 2 -11 -4 -14 -13z"/>
<path d="M1470 5258 c0 -120 40 -569 54 -601 18 -44 265 -339 278 -331 6 4 7
55 4 133 l-5 126 9 -110 c16 -197 14 -192 165 -376 74 -90 139 -165 145 -167
5 -2 13 3 16 11 9 25 -34 619 -48 660 -13 36 -271 347 -288 347 -15 0 -18 -25
-14 -125 l3 -100 -10 110 c-5 61 -16 128 -24 151 -14 38 -251 324 -275 332 -6
2 -10 -22 -10 -60z m327 -635 c-2 -21 -4 -6 -4 32 0 39 2 55 4 38 2 -18 2 -50
0 -70z"/>
<path d="M9845 5135 c-259 -77 -282 -85 -307 -116 -34 -40 -32 -28 -64 -388
-26 -306 -25 -333 13 -345 10 -3 146 34 303 84 261 81 288 92 317 124 38 41
35 27 73 391 27 260 28 291 15 312 -10 15 -25 23 -43 22 -15 0 -153 -38 -307
-84z"/>
<path d="M6718 5086 c-219 -60 -344 -99 -358 -111 -51 -46 -53 -57 -61 -430
-8 -378 -7 -388 44 -400 22 -6 657 174 709 201 14 8 37 28 49 46 22 31 24 46
36 323 17 415 17 421 -7 445 -11 11 -32 20 -47 19 -16 0 -180 -42 -365 -93z"/>
<path d="M9112 4920 c-302 -90 -328 -102 -351 -158 -15 -37 -60 -651 -50 -679
5 -12 19 -25 32 -28 29 -8 589 165 627 193 50 37 57 69 86 406 l28 319 -23 18
c-13 11 -31 19 -40 18 -9 -1 -148 -41 -309 -89z"/>
<path d="M2431 4926 c-9 -11 -11 -36 -7 -88 4 -40 13 -187 21 -326 11 -205 18
-260 33 -295 11 -23 70 -100 132 -172 147 -170 181 -205 193 -198 10 6 5 192
-14 513 -8 131 -15 185 -29 215 -10 22 -77 105 -150 185 -181 200 -164 184
-179 166z"/>
<path d="M5830 4846 c-184 -51 -345 -98 -356 -104 -12 -6 -34 -25 -48 -43
l-26 -31 0 -373 c0 -404 -1 -397 54 -411 14 -3 164 36 380 100 389 114 407
122 425 196 5 19 12 186 15 371 6 329 5 337 -15 363 -16 20 -29 26 -57 25 -20
-1 -188 -43 -372 -93z"/>
<path d="M3164 4908 c-17 -27 12 -675 33 -741 12 -38 48 -84 181 -230 91 -100
173 -182 182 -182 13 0 15 32 12 270 -4 330 -14 470 -37 514 -17 34 -342 381
-356 381 -4 0 -11 -5 -15 -12z"/>
<path d="M4011 4886 c-8 -10 -8 -109 -1 -377 10 -377 13 -405 37 -453 21 -41
383 -416 402 -416 9 0 25 -7 35 -15 11 -8 32 -15 48 -15 42 0 739 207 767 228
14 10 34 31 45 46 20 27 21 39 21 396 0 348 -1 369 -19 389 -12 13 -31 21 -52
21 -17 0 -180 -40 -360 -89 -181 -49 -348 -94 -371 -100 -23 -6 -55 -25 -71
-41 l-29 -29 -22 49 c-16 36 -69 94 -211 234 -105 102 -194 186 -199 186 -5 0
-14 -6 -20 -14z"/>
<path d="M8346 4695 c-154 -45 -294 -90 -311 -98 -64 -31 -71 -64 -91 -425
-16 -310 -16 -323 1 -342 10 -11 28 -20 39 -20 40 0 611 183 642 206 17 13 36
35 43 51 18 46 61 653 47 683 -19 43 -65 36 -370 -55z"/>
<path d="M10481 4565 c-258 -82 -296 -100 -322 -147 -11 -21 -71 -578 -67
-621 2 -16 12 -36 23 -43 19 -12 51 -4 290 76 239 80 274 94 302 125 18 19 35
44 37 57 10 42 66 538 66 576 0 43 -14 62 -44 61 -12 0 -140 -38 -285 -84z"/>
<path d="M2123 4553 c-4 -9 1 -152 11 -318 14 -226 22 -311 36 -346 17 -47
270 -361 295 -367 7 -2 15 3 17 10 3 7 -3 153 -13 324 -13 226 -22 321 -33
348 -13 31 -290 366 -303 366 -2 0 -7 -8 -10 -17z"/>
<path d="M7532 4456 c-335 -100 -360 -111 -381 -180 -5 -17 -15 -176 -21 -354
-11 -304 -11 -324 5 -343 10 -10 31 -19 47 -19 16 0 168 43 336 96 289 90 309
98 344 133 43 45 41 31 63 440 14 246 14 276 0 297 -11 17 -24 24 -48 23 -17
0 -173 -42 -345 -93z"/>
<path d="M2804 4333 c14 -383 23 -498 43 -541 22 -50 320 -395 336 -389 18 6
19 67 4 392 -12 253 -17 307 -33 342 -23 51 -319 383 -342 383 -13 0 -14 -21
-8 -187z"/>
<path d="M3584 4459 c-8 -14 5 -543 16 -661 5 -47 16 -101 26 -119 26 -51 356
-410 374 -407 19 4 24 196 12 523 -7 206 -11 234 -30 271 -24 47 -359 404
-378 404 -7 0 -16 -5 -20 -11z"/>
<path d="M9780 4344 c-146 -46 -276 -92 -290 -102 -49 -36 -57 -70 -85 -390
-25 -288 -26 -305 -9 -323 9 -10 24 -19 33 -19 25 0 550 177 577 195 51 33 56
52 90 373 28 270 30 310 18 330 -10 14 -24 22 -42 21 -15 0 -146 -39 -292 -85z"/>
<path d="M6700 4212 c-179 -54 -335 -103 -347 -110 -11 -6 -31 -28 -43 -47
-22 -35 -22 -44 -24 -387 l-1 -352 27 -15 c25 -14 44 -10 358 89 182 57 345
112 360 122 58 35 62 53 76 413 13 314 12 331 -5 355 -11 15 -29 26 -47 27
-16 1 -175 -42 -354 -95z"/>
<path d="M9052 4115 c-161 -51 -302 -101 -313 -111 -43 -39 -48 -65 -71 -387
-24 -343 -24 -347 31 -347 39 0 590 186 614 207 11 10 26 32 33 48 7 17 25
170 40 339 l27 309 -22 19 c-13 10 -28 18 -35 17 -6 0 -143 -42 -304 -94z"/>
<path d="M2470 4104 c0 -31 7 -179 16 -328 12 -216 19 -279 34 -313 18 -42
296 -383 312 -383 5 0 11 6 14 13 8 22 -25 628 -36 668 -6 20 -23 54 -39 75
-49 65 -275 317 -288 322 -10 3 -13 -12 -13 -54z"/>
<path d="M3194 4075 c-9 -22 15 -622 27 -680 5 -27 15 -60 22 -71 25 -45 339
-395 350 -391 9 3 11 60 9 223 -5 346 -16 493 -38 536 -21 40 -340 398 -355
398 -5 0 -12 -7 -15 -15z"/>
<path d="M5828 3956 c-191 -57 -359 -111 -373 -120 -51 -33 -53 -45 -56 -422
-4 -335 -3 -353 15 -373 12 -13 31 -21 50 -21 44 0 712 213 735 234 46 42 49
64 56 422 l8 340 -28 22 c-15 12 -35 22 -44 21 -9 0 -172 -47 -363 -103z"/>
<path d="M4027 3988 c-9 -26 13 -722 24 -757 16 -49 33 -71 225 -282 92 -101
177 -186 188 -187 11 -2 29 -10 40 -18 11 -8 30 -14 42 -14 11 0 184 51 383
114 259 81 369 120 388 137 51 48 53 63 53 422 0 323 -1 335 -21 361 -14 18
-30 26 -52 26 -18 0 -196 -48 -396 -107 -333 -98 -368 -110 -398 -140 -26 -27
-33 -30 -33 -16 -1 38 -42 90 -220 278 -173 182 -211 214 -223 183z"/>
<path d="M8294 3876 c-161 -51 -304 -100 -318 -109 -53 -35 -57 -58 -77 -396
-12 -208 -15 -321 -8 -333 5 -10 20 -20 32 -23 24 -6 602 183 643 210 49 32
55 61 80 390 20 273 21 313 8 333 -9 14 -24 22 -42 21 -15 0 -158 -42 -318
-93z"/>
<path d="M10401 3810 c-145 -49 -273 -97 -283 -107 -41 -37 -49 -73 -80 -368
-33 -314 -32 -325 16 -325 20 0 508 170 546 190 46 25 57 66 89 335 17 143 32
277 33 297 1 41 -15 68 -41 67 -9 0 -135 -41 -280 -89z"/>
<path d="M2838 3718 c-11 -29 23 -613 38 -666 13 -44 43 -86 167 -235 83 -100
155 -185 161 -189 6 -4 15 -3 20 2 14 14 -12 631 -30 689 -11 37 -47 86 -169
226 -85 99 -161 181 -169 183 -7 2 -16 -3 -18 -10z"/>
<path d="M7510 3630 c-173 -55 -326 -108 -340 -118 -56 -42 -58 -53 -71 -388
-6 -172 -9 -323 -5 -338 13 -51 38 -47 382 68 329 109 351 120 373 177 5 15
18 170 27 344 l18 318 -23 18 c-13 11 -28 19 -35 19 -6 -1 -153 -46 -326 -100z"/>
<path d="M9740 3589 c-323 -109 -317 -106 -347 -146 -26 -33 -27 -45 -54 -336
-16 -181 -23 -309 -18 -318 5 -9 16 -20 26 -23 23 -9 557 181 593 211 15 12
32 35 38 50 7 16 25 156 41 313 27 253 28 287 15 308 -8 12 -24 22 -37 21 -12
0 -128 -36 -257 -80z"/>
<path d="M3612 3608 c-5 -13 -3 -174 3 -358 10 -305 13 -339 32 -380 19 -40
318 -396 360 -427 9 -7 20 -10 26 -6 7 4 8 123 3 347 -5 272 -10 352 -23 394
-14 46 -41 80 -195 250 -98 108 -183 198 -188 200 -6 2 -14 -7 -18 -20z"/>
<path d="M6681 3369 c-173 -55 -329 -108 -347 -119 -59 -37 -61 -52 -69 -411
-7 -324 -7 -327 14 -348 11 -11 28 -21 36 -21 24 0 666 218 692 235 50 33 54
57 67 394 14 358 12 372 -54 370 -14 0 -166 -45 -339 -100z"/>
<path d="M8990 3336 c-151 -51 -285 -99 -297 -107 -52 -32 -61 -74 -83 -385
-11 -160 -18 -299 -14 -308 14 -38 51 -30 341 72 157 56 295 109 305 119 43
39 49 70 76 373 28 324 28 331 -27 329 -14 0 -150 -42 -301 -93z"/>
<path d="M3225 3271 c-3 -6 -1 -122 4 -259 17 -396 17 -396 39 -445 20 -46
315 -410 341 -421 8 -4 17 -4 20 0 7 6 3 234 -8 504 -6 145 -11 183 -28 220
-22 48 -324 403 -347 408 -8 2 -17 -2 -21 -7z"/>
<path d="M6165 3205 c-5 -2 -156 -49 -335 -104 -179 -56 -340 -109 -358 -118
-18 -9 -42 -33 -55 -52 -21 -35 -22 -45 -25 -361 -2 -249 1 -331 11 -350 24
-47 60 -41 421 80 404 134 397 130 408 268 12 165 9 609 -4 620 -16 12 -50 21
-63 17z"/>
<path d="M8243 3087 c-321 -109 -345 -121 -363 -186 -8 -31 -40 -505 -40 -599
0 -23 7 -36 25 -48 24 -15 35 -12 327 91 311 109 344 126 367 184 8 20 52 541
51 609 0 16 -37 52 -52 51 -7 0 -149 -46 -315 -102z"/>
<path d="M4047 3121 c-6 -24 10 -640 18 -696 9 -62 27 -87 220 -309 121 -139
185 -206 196 -203 8 2 24 -2 34 -9 10 -8 33 -14 49 -14 42 0 719 226 749 250
55 43 57 60 57 414 l0 327 -25 24 c-13 14 -32 25 -41 25 -9 0 -181 -52 -383
-115 -334 -105 -369 -118 -397 -148 l-31 -33 -24 52 c-17 37 -79 114 -207 253
-100 111 -189 201 -196 201 -8 0 -16 -9 -19 -19z"/>
<path d="M7474 2830 c-161 -54 -305 -105 -322 -114 -64 -33 -69 -55 -81 -334
-15 -342 -14 -377 5 -396 8 -9 25 -16 36 -16 26 0 615 208 646 228 50 32 55
58 73 382 16 269 16 308 3 327 -9 15 -24 23 -42 22 -15 0 -158 -45 -318 -99z"/>
<path d="M3636 2794 c-12 -31 14 -636 29 -690 12 -43 46 -89 190 -263 97 -117
181 -210 188 -208 19 6 11 645 -8 713 -12 43 -43 83 -187 250 -200 232 -199
231 -212 198z"/>
<path d="M6648 2552 c-338 -114 -366 -128 -386 -195 -6 -17 -12 -169 -15 -336
-4 -286 -3 -305 14 -322 11 -11 26 -19 34 -19 29 0 669 231 688 248 46 42 50
63 60 385 8 214 8 314 0 325 -21 34 -74 22 -395 -86z"/>
<path d="M5822 2275 c-188 -62 -354 -122 -370 -134 -58 -41 -62 -69 -62 -405
0 -280 1 -306 18 -327 12 -14 30 -22 48 -22 16 0 178 53 359 117 346 123 375
137 394 200 5 17 12 169 15 337 6 285 5 306 -11 321 -10 8 -25 18 -34 21 -10
3 -170 -45 -357 -108z"/>
<path d="M4068 2293 c-3 -10 -1 -163 3 -340 6 -255 11 -332 23 -371 13 -37 62
-103 201 -270 102 -122 189 -222 195 -222 5 0 12 5 16 11 5 8 9 7 15 -4 22
-39 56 -31 419 98 217 77 364 134 378 148 51 47 52 54 52 387 0 200 -4 318
-11 331 -26 50 -41 47 -408 -77 -190 -64 -358 -122 -373 -130 -14 -7 -37 -26
-49 -42 l-24 -28 -21 51 c-14 37 -74 113 -204 263 -101 117 -189 212 -196 212
-6 0 -14 -8 -16 -17z"/>
</g>
</svg>
