<?xml version="1.0" standalone="no"?>
<!DOCTYPE svg PUBLIC "-//W3C//DTD SVG 20010904//EN"
 "http://www.w3.org/TR/2001/REC-SVG-20010904/DTD/svg10.dtd">
<svg version="1.0" xmlns="http://www.w3.org/2000/svg"
 width="1064.000000pt" height="1280.000000pt" viewBox="0 0 1064.000000 1280.000000"
 preserveAspectRatio="xMidYMid meet">
<metadata>
Created by potrace 1.15, written by Peter Selinger 2001-2017
</metadata>
<g transform="translate(0.000000,1280.000000) scale(0.100000,-0.100000)"
fill="white" stroke="none">
<path d="M7235 12660 c-503 -136 -1197 -322 -2185 -587 -278 -74 -620 -166
-760 -204 l-255 -69 -1265 -106 c-696 -59 -1267 -108 -1269 -110 -2 -2 2 -71
9 -154 6 -84 9 -154 6 -157 -3 -4 -184 -39 -401 -78 -218 -40 -399 -75 -402
-79 -4 -3 1 -47 10 -98 9 -51 13 -95 9 -99 -4 -3 -70 -22 -147 -43 -265 -69
-576 -154 -581 -158 -4 -4 42 -177 396 -1498 83 -311 209 -781 280 -1045 71
-264 206 -768 300 -1120 94 -352 220 -822 280 -1045 60 -223 176 -657 259
-965 82 -308 227 -848 321 -1200 94 -352 232 -865 306 -1140 l135 -500 69
-815 c38 -448 70 -826 70 -839 l0 -23 114 7 113 7 22 -119 c12 -65 26 -141 32
-169 l10 -51 46 8 c26 5 50 6 53 2 4 -5 19 -52 33 -107 14 -54 28 -100 30
-102 4 -4 553 142 2412 641 540 145 768 184 1370 235 565 48 3263 274 3562
298 117 10 215 20 217 23 3 3 -2 96 -11 207 -10 111 -15 203 -12 206 2 3 51
13 107 23 56 9 102 22 102 28 0 5 -16 93 -35 195 -19 102 -35 188 -35 191 0 4
21 12 46 18 36 9 45 16 41 29 -2 9 -72 271 -155 582 -125 468 -161 618 -207
870 -31 168 -61 350 -66 405 -4 55 -63 748 -129 1540 -66 792 -161 1922 -210
2510 -227 2706 -292 3487 -322 3848 -18 213 -35 391 -38 396 -3 5 -187 -7
-409 -26 -222 -18 -406 -31 -409 -28 -3 2 -20 87 -39 187 -19 101 -36 185 -38
187 -2 2 -165 -27 -362 -63 -197 -36 -365 -66 -373 -66 -11 0 -26 41 -54 148
-21 81 -43 162 -48 180 -5 17 -14 31 -21 31 -7 -1 -241 -63 -522 -139z"/>
</g>
</svg>
