<?xml version="1.0" standalone="no"?>
<!DOCTYPE svg PUBLIC "-//W3C//DTD SVG 20010904//EN"
 "http://www.w3.org/TR/2001/REC-SVG-20010904/DTD/svg10.dtd">
<svg version="1.0" xmlns="http://www.w3.org/2000/svg"
 width="960.000000pt" height="1280.000000pt" viewBox="0 0 960.000000 1280.000000"
 preserveAspectRatio="xMidYMid meet">
<metadata>
Created by potrace 1.15, written by Peter Selinger 2001-2017
</metadata>
<g transform="translate(0.000000,1280.000000) scale(0.100000,-0.100000)"
fill="white" stroke="none">
<path d="M4192 12468 c-86 -42 -135 -365 -162 -1068 -6 -140 -12 -261 -15
-267 -2 -7 -14 -13 -25 -13 -11 0 -20 -7 -20 -15 0 -8 9 -15 20 -15 12 0 20
-7 20 -17 -1 -52 -35 -152 -80 -230 -96 -168 -112 -243 -140 -693 -28 -426
-94 -649 -250 -835 -25 -30 -122 -141 -217 -249 -445 -504 -579 -705 -706
-1068 -137 -388 -167 -647 -101 -875 44 -155 134 -291 267 -405 75 -65 251
-184 329 -224 99 -50 108 -174 34 -480 -70 -289 -77 -356 -79 -689 -1 -172 4
-339 11 -410 24 -224 63 -509 103 -745 22 -129 40 -241 42 -249 3 -23 -111
-77 -192 -92 -55 -9 -89 -10 -142 -2 -68 11 -93 22 -289 124 -99 52 -210 79
-319 79 -151 -1 -217 -52 -207 -159 6 -66 74 -213 134 -287 52 -66 146 -128
236 -157 65 -20 90 -22 281 -21 l210 1 141 46 c173 56 204 62 226 45 11 -8 42
-95 82 -228 36 -118 73 -240 84 -270 52 -147 125 -288 184 -356 l30 -34 -26
-132 c-14 -72 -31 -185 -38 -250 -28 -286 46 -525 231 -747 72 -88 102 -153
232 -506 98 -266 197 -433 312 -526 78 -62 201 -118 289 -128 143 -18 219 4
316 93 139 128 120 263 -83 591 -80 128 -149 271 -164 335 -6 25 -11 68 -11
95 l0 50 194 190 c250 245 305 320 366 500 15 44 39 112 54 152 36 99 53 227
66 501 14 299 34 409 99 524 30 55 41 60 41 19 0 -45 53 -245 95 -356 49 -130
104 -240 172 -344 70 -105 91 -159 99 -258 7 -95 -10 -219 -65 -457 -78 -339
-88 -437 -64 -679 20 -208 77 -292 362 -531 79 -67 148 -128 152 -136 4 -8 11
-32 14 -53 4 -27 19 -51 49 -81 158 -159 539 -168 625 -15 19 34 22 50 18 90
-8 69 -39 119 -183 304 -202 258 -255 365 -256 515 0 91 14 154 52 240 16 36
35 107 44 162 27 168 99 365 230 627 130 260 181 376 276 636 19 52 34 269 34
505 1 169 -30 247 -220 552 -110 176 -172 302 -194 395 -6 29 -13 99 -15 155
-1 57 -6 148 -10 203 -24 310 87 617 290 803 113 104 172 118 351 83 153 -29
198 -28 229 5 14 15 27 43 30 63 4 20 8 44 10 53 6 34 -16 170 -42 251 -31
100 -75 190 -161 327 -161 259 -265 400 -393 535 l-70 73 25 37 c56 83 87 204
105 415 17 205 -8 368 -89 571 -51 126 -208 442 -270 539 -67 105 -238 442
-245 483 -5 27 0 46 24 89 41 73 42 141 4 224 -22 48 -27 74 -27 134 -1 93 25
151 139 320 42 63 88 136 101 162 34 67 61 173 69 272 l7 86 32 -22 c49 -35
142 -126 172 -169 17 -25 31 -36 37 -30 21 21 -102 158 -205 229 -42 29 -48
37 -48 69 0 20 -5 76 -11 125 -7 49 -9 91 -6 94 3 3 23 -4 45 -15 27 -14 43
-17 47 -10 9 13 11 11 -52 43 l-53 26 0 118 c1 139 10 185 50 251 41 66 104
235 137 368 23 90 27 130 28 243 0 152 -10 185 -68 221 -43 27 -116 20 -199
-19 -35 -17 -88 -41 -118 -54 -30 -14 -123 -65 -205 -115 -180 -108 -232 -135
-308 -159 -57 -18 -58 -18 -130 6 -151 49 -177 52 -537 58 -302 6 -349 9 -372
24 -59 39 -158 142 -296 308 -234 280 -330 373 -493 470 -90 55 -85 53 -117
38z m187 -145 c87 -52 160 -135 304 -346 206 -304 326 -410 466 -411 l65 -1
106 -147 c58 -81 107 -147 110 -148 3 0 19 66 34 148 33 165 35 174 46 167 4
-3 31 -101 60 -217 28 -117 53 -220 57 -228 3 -8 38 82 79 200 41 118 77 216
79 219 3 2 7 2 10 -1 5 -5 34 -239 35 -275 0 -7 3 -13 8 -13 4 0 51 49 106
109 68 75 103 107 115 104 28 -7 109 29 273 120 388 215 532 264 593 202 20
-19 25 -34 25 -77 0 -116 -36 -238 -174 -593 -45 -117 -80 -244 -91 -335 l-5
-45 -153 -1 c-128 0 -170 -4 -262 -26 -149 -35 -285 -86 -279 -103 4 -10 18
-8 65 11 33 14 113 39 177 56 107 28 131 31 280 32 179 1 182 0 182 -61 0 -18
11 -67 25 -110 13 -42 22 -79 20 -81 -2 -2 -38 8 -80 23 -87 30 -229 60 -327
70 -59 6 -68 5 -68 -9 0 -12 10 -16 39 -16 68 0 213 -29 329 -66 131 -42 129
-39 112 -164 -39 -287 -221 -460 -399 -380 -24 11 -64 37 -90 58 -25 21 -93
61 -151 89 -219 107 -390 249 -429 356 -24 67 -28 162 -7 210 7 18 32 49 55
69 l42 36 -17 41 c-45 112 -151 106 -231 -13 -18 -26 -38 -65 -44 -86 -11 -35
-9 -41 30 -106 52 -86 51 -112 -4 -129 -27 -8 -66 -37 -119 -89 -44 -42 -92
-84 -107 -93 -37 -22 -56 -59 -43 -81 21 -33 50 -25 108 27 31 28 62 51 69 51
7 0 23 -13 34 -28 12 -16 122 -96 245 -177 328 -218 431 -330 431 -469 0 -51
-28 -133 -57 -166 -7 -8 -26 -71 -41 -140 -83 -380 -233 -821 -470 -1385 -53
-126 -117 -281 -143 -343 -25 -61 -49 -109 -53 -105 -4 5 -285 428 -624 942
-352 532 -634 969 -656 1015 -40 86 -92 253 -85 271 2 6 35 20 73 30 118 31
117 27 29 107 -95 87 -136 154 -136 222 0 69 18 86 90 86 31 0 71 -5 88 -11
17 -6 41 -9 53 -7 20 3 12 13 -60 83 -45 44 -89 92 -97 107 -21 41 -17 90 12
133 36 54 63 73 112 81 40 6 42 8 42 41 0 18 -9 51 -20 73 -11 22 -20 43 -20
48 0 12 189 70 285 87 104 19 292 19 380 0 38 -8 102 -30 141 -49 54 -26 74
-31 78 -21 6 15 -101 66 -189 90 -151 41 -379 27 -580 -36 -140 -43 -143 -43
-178 12 l-29 47 31 106 c16 58 33 121 37 141 l7 37 71 -7 c85 -8 252 -51 548
-138 119 -36 220 -62 223 -59 13 14 0 23 -62 41 -38 11 -160 47 -273 80 -237
70 -311 88 -417 101 -42 6 -78 12 -80 14 -2 2 3 53 11 112 20 149 36 456 39
779 3 229 6 275 20 302 30 56 78 57 166 6z m1384 -2104 c133 -68 374 -244 451
-329 50 -57 52 -63 39 -192 l-6 -68 -23 50 c-47 102 -183 218 -462 395 -78 49
-142 93 -142 96 0 6 90 69 98 69 1 0 22 -10 45 -21z m667 -584 c9 -19 15 -59
15 -105 0 -135 -48 -195 -178 -222 -98 -21 -98 -1 -2 127 35 46 56 87 64 121
16 66 46 116 69 112 9 -2 24 -17 32 -33z m-2582 -236 c17 -18 47 -63 67 -100
l36 -69 -50 20 c-104 40 -121 50 -146 74 -24 25 -25 27 -10 55 15 30 40 50 61
51 7 0 25 -14 42 -31z m2621 -113 c7 -8 11 -32 9 -53 -3 -41 -19 -50 -64 -39
-31 8 -33 51 -2 83 25 27 41 29 57 9z m-190 -116 c30 -31 51 -83 51 -130 0
-50 -42 -103 -105 -136 -89 -47 -105 -50 -105 -22 0 13 7 45 15 72 8 27 15 70
15 95 0 131 61 188 129 121z m-184 -206 c-14 -71 -41 -174 -59 -229 -21 -61
-36 -133 -41 -184 -11 -130 -47 -238 -154 -456 -54 -110 -106 -222 -116 -250
-25 -67 -31 -72 -44 -34 -10 30 -7 40 33 118 148 289 287 681 321 909 22 145
34 197 59 262 20 52 21 53 24 24 2 -17 -9 -89 -23 -160z m-2052 83 c20 -40 58
-98 84 -128 207 -242 696 -943 1022 -1467 l133 -212 -21 -83 c-11 -45 -34
-143 -50 -217 -51 -228 -92 -340 -143 -386 -40 -38 -61 -38 -140 -1 -68 32
-162 69 -543 212 -202 77 -398 172 -516 250 -139 93 -142 98 -136 215 7 130
35 211 167 475 60 121 112 232 116 247 6 27 5 28 -27 22 -66 -13 -153 -66
-219 -133 -180 -183 -263 -526 -184 -763 18 -54 80 -153 115 -184 13 -11 76
-37 139 -57 63 -21 180 -71 260 -111 80 -40 213 -107 295 -149 206 -104 311
-139 447 -146 100 -6 109 -8 136 -34 44 -42 85 -140 86 -206 1 -81 -22 -81
-73 1 -69 110 -70 110 -71 58 0 -24 9 -111 21 -193 11 -82 18 -151 16 -154 -3
-2 -32 48 -64 113 -32 65 -64 120 -70 122 -10 3 -13 -28 -14 -130 -1 -195 -20
-237 -107 -238 -74 0 -132 57 -218 215 -33 60 -68 111 -79 116 -11 4 -128 43
-260 85 -248 79 -402 135 -563 206 -106 46 -112 54 -112 149 0 133 35 189 116
189 30 0 44 4 44 13 0 19 -39 53 -75 67 -46 18 -209 13 -305 -9 l-85 -20 -93
93 -93 93 93 38 c178 72 318 161 359 228 28 46 25 102 -7 134 -25 25 -29 25
-122 21 -82 -4 -115 -12 -217 -48 -96 -35 -132 -43 -182 -43 -94 2 -153 42
-153 105 0 14 14 79 30 143 17 64 30 127 30 141 0 29 -2 29 102 5 189 -44 362
-51 441 -18 79 34 102 106 51 166 -52 62 -234 128 -442 161 -64 11 -74 15 -87
40 -58 113 1 234 149 307 l54 26 103 -46 c197 -88 367 -119 438 -82 40 20 57
66 41 105 -29 70 -179 169 -349 230 -71 25 -78 31 -103 76 -15 27 -28 56 -28
65 0 30 37 49 121 64 l84 15 29 -37 c51 -66 180 -188 218 -206 50 -23 93 -22
118 5 44 47 19 116 -92 254 -107 133 -128 165 -128 191 0 37 39 45 235 50 219
5 225 6 225 38 0 41 13 29 53 -48z m2385 -138 c3 -33 0 -38 -29 -48 -53 -18
-65 8 -28 60 28 40 53 34 57 -12z m162 -151 c11 -18 20 -43 20 -56 0 -13 15
-50 33 -83 l32 -59 -69 -135 c-37 -74 -71 -135 -75 -135 -3 1 -28 39 -56 86
-27 47 -78 120 -112 161 -35 42 -63 79 -63 84 0 15 132 128 173 148 62 31 93
28 117 -11z m-370 -25 c-1 -53 -11 -63 -61 -63 -51 0 -63 8 -53 34 15 39 114
64 114 29z m-90 -163 c22 -11 40 -25 40 -30 0 -14 -35 -30 -67 -30 -34 0 -53
16 -53 45 0 41 21 45 80 15z m146 -192 c210 -78 313 -386 205 -613 -44 -91
-69 -116 -124 -125 -66 -10 -163 6 -225 36 -61 30 -81 60 -66 102 8 23 19 29
82 43 40 9 75 19 78 22 13 12 -10 27 -89 57 -102 39 -139 66 -139 104 0 35 24
58 82 79 69 26 110 54 110 76 0 13 -24 40 -62 71 -72 59 -108 105 -108 136 0
45 150 52 256 12z m445 -119 c133 -11 135 -12 151 -40 l17 -28 -132 -111 c-72
-60 -135 -110 -139 -110 -5 0 -8 15 -8 33 0 43 -32 168 -59 230 l-21 49 28 -6
c15 -2 88 -10 163 -17z m175 -397 c42 -21 114 -96 114 -116 0 -6 -56 -47 -125
-91 l-124 -80 129 -90 c81 -56 128 -95 125 -103 -9 -23 -44 -216 -47 -255 l-3
-37 -55 46 c-145 120 -367 247 -489 278 -129 33 -179 67 -150 102 17 21 111
68 180 89 51 16 60 23 89 71 32 53 70 159 70 196 0 19 5 20 123 16 101 -3 129
-7 163 -26z m-1008 -20 c34 -22 111 -129 148 -207 39 -81 41 -91 15 -105 -32
-16 -65 3 -152 90 -44 44 -84 80 -89 80 -15 0 -22 77 -11 118 15 54 33 59 89
24z m-173 -228 c53 -25 262 -194 240 -194 -3 0 -50 11 -103 24 -212 54 -292
41 -292 -46 0 -18 -8 -26 -41 -36 -44 -14 -58 -10 -41 10 5 7 15 42 22 77 30
167 99 220 215 165z m425 -264 c27 -17 18 -118 -18 -194 -29 -62 -33 -66 -64
-66 -21 0 -57 14 -98 40 -35 22 -98 53 -140 70 -77 31 -130 70 -130 95 0 22
65 35 124 24 62 -11 99 -25 151 -57 l39 -25 15 24 c21 32 86 99 97 99 5 0 16
-5 24 -10z m507 -160 c98 -51 136 -88 179 -172 58 -115 78 -205 79 -348 0
-115 -2 -128 -25 -169 -14 -24 -38 -54 -53 -65 l-28 -21 -34 40 c-90 106 -233
385 -275 536 -27 98 -27 192 0 219 30 30 70 25 157 -20z m-979 -14 c88 -24
194 -92 361 -234 41 -35 28 -48 -26 -28 -62 23 -412 171 -488 206 -38 17 -81
37 -95 42 l-25 11 25 7 c42 13 192 10 248 -4z m756 -241 c60 -166 205 -459
340 -691 72 -123 109 -198 117 -235 24 -109 -10 -296 -91 -504 -42 -106 -100
-233 -322 -700 -58 -121 -145 -305 -192 -410 -151 -329 -259 -497 -384 -600
-73 -61 -171 -115 -252 -140 -102 -32 -617 -40 -627 -10 -2 6 34 29 79 50 123
60 190 113 222 176 14 29 26 63 26 76 0 13 -27 105 -61 205 -56 166 -61 188
-57 250 2 37 8 72 14 78 6 6 23 6 49 -2 22 -6 83 -12 135 -12 82 0 103 3 151
26 124 57 163 191 99 338 -16 38 -30 76 -30 85 0 28 29 73 66 101 21 17 34 34
31 43 -3 14 6 16 67 13 84 -4 127 11 188 66 55 49 78 102 78 179 0 80 -10 105
-73 172 -29 32 -65 84 -82 116 -27 55 -30 69 -29 155 0 102 18 156 84 260 15
25 34 65 40 90 21 78 64 169 179 374 146 262 151 278 161 451 5 77 9 142 9
145 3 15 24 -31 65 -145z m-1015 27 c-16 -83 -79 -264 -133 -378 -59 -122
-120 -224 -136 -224 -19 0 -10 79 24 197 43 147 90 259 149 355 82 130 113
147 96 50z m391 -31 c72 -21 143 -73 169 -124 23 -45 24 -52 12 -95 -6 -26
-25 -64 -42 -84 -16 -20 -29 -41 -29 -47 0 -6 -8 -14 -17 -19 -22 -11 -48 -2
-178 64 -119 61 -156 74 -218 76 -45 2 -46 3 -52 39 -21 125 90 216 250 205
39 -3 86 -10 105 -15z m-116 -462 c30 -23 26 -39 -9 -39 -36 0 -55 10 -55 29
0 37 25 41 64 10z m166 -39 c0 -23 -7 -35 -32 -50 -40 -24 -48 -25 -48 -3 0
17 57 83 72 83 4 0 8 -14 8 -30z m-421 -35 c18 -17 24 -35 25 -67 1 -77 -12
-117 -43 -133 -27 -14 -31 -13 -68 14 -60 43 -83 78 -83 123 0 85 106 125 169
63z m1817 -67 c62 -22 158 -84 196 -124 40 -43 58 -106 65 -223 l6 -103 -44 6
c-57 9 -188 74 -261 129 -77 58 -223 191 -248 226 l-20 29 49 36 c79 58 148
65 257 24z m-1566 -1 c0 -2 -14 -43 -30 -93 -111 -326 -220 -778 -269 -1117
-10 -70 -22 -131 -25 -134 -12 -12 -37 23 -47 63 -4 21 -6 62 -3 89 12 112 57
332 74 365 31 60 60 169 85 325 50 303 84 405 155 469 34 31 60 45 60 33z
m-2093 -97 c42 -11 146 -53 232 -91 304 -138 384 -167 504 -184 45 -6 50 -9
67 -48 32 -76 75 -123 137 -153 54 -27 66 -29 166 -28 l107 2 -28 -33 c-22
-24 -33 -53 -46 -121 -10 -49 -51 -233 -91 -409 -119 -520 -156 -725 -174
-978 -12 -157 -6 -187 62 -289 103 -155 259 -250 617 -378 96 -34 176 -63 177
-64 1 -1 -2 -31 -7 -66 -6 -36 -26 -173 -45 -305 -87 -584 -156 -980 -180
-1033 -34 -75 -118 -158 -254 -250 -135 -93 -191 -145 -221 -208 -20 -40 -22
-57 -18 -164 5 -119 5 -121 51 -214 26 -51 119 -203 208 -337 158 -238 182
-279 162 -279 -6 0 -69 17 -142 39 -72 21 -131 37 -131 35 0 -2 24 -19 53 -37
77 -50 107 -89 107 -142 0 -24 -5 -47 -12 -51 -7 -4 -39 -7 -73 -7 -117 2
-247 72 -381 207 -116 117 -144 162 -161 260 -29 171 -92 315 -273 631 -157
273 -205 380 -241 533 -17 72 -19 94 -10 152 21 133 35 144 110 81 25 -21 61
-48 80 -59 l34 -21 14 26 c17 33 17 46 -7 188 -11 66 -20 140 -20 165 0 113
53 124 196 42 49 -29 100 -52 113 -52 24 0 24 1 18 78 -16 190 -54 279 -134
314 -40 18 -62 20 -171 17 l-126 -4 -24 35 c-20 29 -23 44 -20 88 7 77 44 112
157 147 171 52 221 87 221 154 0 71 -56 104 -225 135 -107 20 -179 42 -221 67
-33 20 -194 254 -194 281 0 22 87 89 123 95 20 3 72 -5 131 -21 151 -40 186
-34 186 31 0 103 -104 181 -391 293 -87 33 -176 74 -198 91 -82 59 -101 127
-55 195 30 43 40 52 103 95 54 35 108 38 257 14 53 -9 110 -13 125 -10 64 14
90 105 49 172 -29 48 -89 82 -242 135 -176 61 -207 77 -257 135 -66 76 -67
122 -3 180 47 43 79 51 258 63 175 12 247 29 271 66 15 24 15 29 2 52 -23 41
-117 111 -251 186 -206 116 -257 152 -274 193 -34 81 -55 266 -37 332 13 50
121 64 240 31z m2169 -79 c-7 -78 -33 -179 -116 -441 -80 -255 -109 -375 -117
-483 -4 -66 -9 -84 -16 -71 -16 28 -1 210 28 339 15 66 67 257 116 425 49 167
89 311 89 320 1 11 3 10 12 -4 6 -12 8 -44 4 -85z m-467 -128 c85 -43 80 -56
-20 -48 -52 4 -94 3 -111 -4 -23 -9 -29 -7 -38 9 -14 26 -13 67 3 74 26 12
113 -5 166 -31z m-29 -192 c5 -11 10 -35 10 -54 0 -47 -38 -167 -55 -173 -37
-15 -115 58 -115 108 0 88 126 182 160 119z m-305 -122 c-23 -63 -19 -125 10
-175 24 -41 48 -59 204 -157 67 -42 81 -64 26 -41 -52 21 -96 17 -163 -17
-149 -74 -268 -297 -232 -436 23 -96 84 -144 205 -163 l68 -11 46 39 c55 47
88 65 101 57 28 -17 -9 -151 -84 -310 -52 -109 -100 -157 -182 -181 -72 -21
-129 -14 -212 27 -143 70 -199 224 -134 370 17 39 116 437 178 719 35 157 48
264 35 288 -10 18 -8 21 17 25 15 2 50 5 79 6 l52 1 -14 -41z m955 -206 c19
-25 21 -38 18 -110 -1 -45 -6 -84 -10 -88 -4 -4 -40 -12 -82 -18 -93 -13 -152
1 -167 39 -18 50 46 145 126 187 48 26 90 21 115 -10z m-740 -333 c13 -13 20
-33 20 -57 0 -50 -40 -184 -57 -190 -27 -11 -104 9 -133 33 -21 18 -30 35 -30
57 0 72 89 163 173 176 4 0 16 -8 27 -19z m390 -290 c11 -11 20 -33 20 -48 0
-45 -46 -124 -87 -151 l-37 -24 -28 34 c-59 70 -55 151 10 191 38 24 97 23
122 -2z m1104 -484 c15 -44 31 -87 36 -95 6 -11 -8 -32 -49 -78 -66 -74 -128
-173 -137 -219 -8 -43 14 -85 50 -97 42 -14 124 7 221 57 l82 42 42 -75 42
-76 -22 -15 c-104 -69 -164 -117 -190 -152 -37 -51 -43 -76 -30 -111 20 -53
104 -69 269 -52 l72 7 0 -26 c0 -22 -10 -31 -67 -59 -38 -19 -111 -50 -165
-71 -105 -40 -173 -83 -190 -121 -16 -36 6 -80 49 -101 77 -36 250 2 318 70
l25 25 -1 -77 c-1 -86 -16 -151 -39 -163 -8 -4 -85 -41 -170 -82 -249 -120
-328 -211 -251 -288 25 -25 37 -29 81 -29 29 0 85 11 127 25 42 14 77 24 79
22 3 -2 -30 -76 -72 -163 -176 -370 -236 -529 -274 -734 -11 -63 -42 -191 -68
-285 -42 -153 -46 -181 -47 -280 0 -97 3 -116 25 -160 24 -51 111 -145 133
-145 7 0 39 -13 72 -28 142 -68 179 -193 95 -325 l-28 -45 -46 9 c-69 13 -93
29 -188 127 -59 62 -112 105 -169 138 -45 27 -112 78 -149 114 -227 224 -272
535 -164 1125 20 107 35 159 65 220 94 197 78 291 -91 525 -105 145 -143 215
-170 310 -44 159 -37 293 23 412 32 65 85 122 334 358 116 111 122 119 181
235 33 66 97 203 142 305 82 184 99 220 149 294 l26 39 6 -114 c5 -86 13 -134
33 -193z m-2013 -107 c36 -25 63 -98 56 -145 -3 -19 -19 -57 -34 -82 -15 -26
-30 -65 -33 -86 -10 -81 -50 -42 -95 94 -33 100 -40 151 -26 193 19 58 73 69
132 26z m466 -174 c27 -8 58 -24 68 -35 40 -44 10 -119 -74 -189 -58 -49 -88
-61 -150 -61 -45 0 -52 3 -95 50 -50 53 -66 85 -66 130 0 87 178 146 317 105z
m-2566 -226 c24 -10 27 -16 32 -88 11 -146 77 -301 128 -301 33 0 50 43 62
162 7 62 17 113 22 113 6 0 35 -9 67 -19 55 -19 56 -20 51 -52 -7 -40 25 -110
73 -161 19 -20 34 -37 34 -38 0 -1 -35 -8 -77 -16 -109 -19 -281 -17 -368 5
-144 37 -270 129 -337 246 -39 67 -46 104 -10 48 18 -27 50 -58 78 -74 45 -26
47 -27 60 -9 8 10 14 42 14 69 0 57 14 116 30 126 15 9 108 1 141 -11z m630
-262 c23 -27 39 -50 37 -52 -5 -5 -136 -55 -145 -55 -10 0 5 158 18 182 l12
22 19 -25 c10 -13 37 -46 59 -72z"/>
<path d="M4415 12075 c16 -22 99 -130 185 -240 86 -110 159 -205 163 -212 11
-17 -72 -71 -171 -109 -47 -19 -99 -45 -117 -58 -30 -24 -102 -123 -94 -130 2
-2 101 49 219 115 206 113 215 120 238 165 l24 47 -79 79 c-150 153 -397 383
-368 343z"/>
<path d="M6585 11673 c-77 -47 -167 -98 -200 -114 -71 -34 -96 -53 -130 -98
-50 -69 -29 -95 56 -70 l37 12 107 -93 c59 -52 120 -111 136 -133 34 -47 38
-31 14 50 -14 46 -21 54 -69 82 -50 28 -78 57 -119 121 l-17 26 170 148 c94
81 170 150 170 152 0 10 -23 -3 -155 -83z"/>
<path d="M5026 11266 c-37 -14 -85 -51 -75 -59 2 -2 58 -23 124 -47 145 -52
237 -97 289 -142 33 -29 41 -43 45 -82 6 -46 6 -46 29 -31 102 72 -142 347
-328 369 -27 4 -60 0 -84 -8z"/>
<path d="M5985 11056 c-90 -28 -145 -75 -145 -122 0 -21 5 -24 38 -24 20 0 75
10 122 21 55 14 120 22 183 23 84 1 98 3 103 19 8 26 -22 66 -61 83 -43 17
-185 18 -240 0z"/>
<path d="M5950 7170 c0 -5 5 -10 11 -10 5 0 7 5 4 10 -3 6 -8 10 -11 10 -2 0
-4 -4 -4 -10z"/>
<path d="M4896 4005 c-9 -26 -7 -32 5 -12 6 10 9 21 6 23 -2 3 -7 -2 -11 -11z"/>
</g>
</svg>
