<?xml version="1.0" standalone="no"?>
<!DOCTYPE svg PUBLIC "-//W3C//DTD SVG 20010904//EN"
 "http://www.w3.org/TR/2001/REC-SVG-20010904/DTD/svg10.dtd">
<svg version="1.0" xmlns="http://www.w3.org/2000/svg"
 width="1280.000000pt" height="907.000000pt" viewBox="0 0 1280.000000 907.000000"
 preserveAspectRatio="xMidYMid meet">
<metadata>
Created by potrace 1.15, written by Peter Selinger 2001-2017
</metadata>
<g transform="translate(0.000000,907.000000) scale(0.100000,-0.100000)"
fill="white" stroke="none">
<path d="M4323 9049 c-6 -6 -45 -15 -88 -20 -47 -5 -89 -16 -109 -29 -18 -11
-39 -20 -45 -20 -13 0 -111 -42 -151 -65 -14 -8 -44 -24 -66 -35 -23 -11 -48
-27 -55 -36 -8 -10 -44 -41 -82 -71 -70 -56 -243 -243 -257 -278 -4 -11 -38
-56 -74 -99 -36 -43 -66 -84 -66 -91 0 -6 -15 -32 -34 -56 -19 -24 -48 -78
-65 -120 -18 -42 -41 -85 -51 -94 -11 -10 -20 -30 -20 -44 0 -14 -11 -48 -25
-76 -13 -27 -25 -54 -25 -58 0 -5 -6 -23 -14 -40 -30 -72 -66 -197 -66 -235 0
-22 -7 -76 -15 -119 -8 -43 -15 -125 -15 -184 0 -62 -4 -109 -11 -116 -8 -8
-8 -13 0 -17 6 -4 11 -38 11 -78 0 -65 19 -162 40 -199 5 -9 12 -34 16 -55 4
-22 15 -51 25 -66 11 -14 19 -33 19 -41 0 -17 24 -67 37 -76 4 -3 13 -13 18
-22 32 -52 102 -138 111 -138 6 -1 21 -12 34 -26 13 -14 29 -25 35 -25 6 0
155 -72 330 -160 l320 -160 116 -11 c82 -7 149 -7 220 0 102 10 103 10 307
112 183 92 212 110 282 176 43 40 82 73 87 73 12 0 73 63 73 76 0 5 18 27 39
48 l40 39 27 -19 c15 -10 37 -26 48 -34 12 -8 36 -24 52 -34 l31 -20 -33 -45
c-18 -25 -49 -67 -69 -93 -19 -26 -35 -53 -35 -60 0 -7 -8 -26 -18 -43 -10
-16 -24 -51 -32 -78 -7 -26 -17 -50 -21 -53 -5 -3 -9 -25 -9 -50 0 -24 -4 -44
-10 -44 -6 0 -10 -139 -10 -398 0 -370 8 -537 30 -587 21 -51 20 -60 -5 -30
-14 17 -25 36 -25 42 0 22 -208 230 -248 248 -20 10 -53 31 -73 46 -20 15
-112 67 -205 115 -93 48 -232 120 -309 160 -77 40 -196 101 -265 136 -69 35
-127 66 -130 69 -3 3 -12 9 -20 12 -8 4 -82 43 -165 86 -238 125 -451 231
-464 231 -14 0 -307 145 -327 161 -11 9 -197 103 -971 493 -188 95 -362 178
-385 185 -24 6 -52 16 -63 21 -26 11 -230 30 -328 30 -75 0 -173 -15 -192 -30
-5 -4 -30 -11 -55 -15 -25 -4 -57 -14 -72 -21 -15 -8 -31 -15 -35 -15 -43 -7
-149 -62 -219 -115 -39 -30 -75 -54 -79 -54 -16 0 -173 -151 -189 -182 -10
-18 -30 -51 -46 -73 -16 -22 -35 -56 -41 -75 -11 -34 -41 -104 -79 -185 -20
-43 -40 -230 -40 -371 0 -77 21 -215 39 -259 5 -11 14 -40 22 -65 13 -45 52
-142 70 -170 5 -8 18 -32 29 -52 11 -21 49 -71 85 -112 36 -41 65 -79 65 -85
0 -6 5 -11 11 -11 6 0 36 -20 68 -45 31 -25 62 -45 69 -45 6 0 16 -9 22 -20 6
-11 16 -20 21 -20 6 0 29 -14 50 -31 21 -17 371 -197 776 -401 922 -462 2243
-1127 2304 -1160 26 -14 55 -28 65 -31 11 -4 37 -13 59 -21 22 -9 49 -16 61
-16 11 0 26 -6 33 -12 17 -18 417 -18 452 -1 13 6 51 16 84 22 37 7 105 34
175 69 147 75 163 84 173 100 4 6 13 12 20 12 7 0 63 51 124 113 96 96 119
126 161 207 26 52 54 116 61 143 8 26 17 47 21 47 4 0 13 28 20 63 6 34 17 73
23 86 16 33 17 439 1 449 -13 8 -38 112 -29 120 3 3 5 0 5 -6 0 -7 23 -40 50
-74 28 -34 50 -67 50 -73 0 -14 59 -75 72 -75 5 0 43 -27 83 -60 40 -33 76
-60 80 -60 3 0 49 -34 100 -75 52 -41 99 -75 104 -75 5 0 38 -15 73 -33 35
-18 83 -39 108 -46 25 -8 56 -20 70 -27 14 -6 50 -17 80 -24 30 -7 60 -16 65
-19 19 -13 80 -30 130 -36 28 -4 59 -10 70 -15 11 -5 103 -16 203 -26 269 -25
720 -11 807 26 11 5 67 15 125 24 58 8 119 22 135 30 17 9 46 16 66 16 20 0
42 7 49 15 7 8 18 15 24 15 18 0 326 157 350 178 27 23 103 72 113 72 27 0
293 267 293 294 0 5 15 32 34 60 18 28 37 67 41 86 4 19 16 52 26 73 38 81 41
125 37 667 -3 521 -3 525 -25 572 -13 26 -23 53 -23 61 0 29 -54 113 -118 184
-173 191 -257 260 -412 334 -69 34 -132 65 -140 70 -54 33 -141 69 -166 69
-16 0 -38 6 -49 14 -11 7 -38 19 -60 26 -22 7 -45 16 -51 21 -6 5 -14 6 -17 3
-3 -4 -13 -4 -22 0 -13 5 -13 10 5 43 11 21 20 45 20 53 0 8 8 29 18 45 15 27
17 68 17 431 0 292 -3 407 -12 425 -7 13 -16 40 -22 59 -17 61 -62 164 -87
197 -55 72 -276 248 -348 276 -11 4 -27 14 -36 22 -26 23 -148 85 -167 85 -10
0 -28 7 -40 15 -12 8 -45 20 -75 26 -29 6 -57 15 -63 19 -5 4 -48 13 -95 21
-47 7 -95 19 -107 27 -39 24 -352 37 -594 24 -116 -6 -216 -15 -222 -20 -7 -5
-25 -12 -42 -15 -69 -14 -141 -33 -153 -41 -8 -4 -35 -14 -60 -21 -26 -8 -70
-22 -98 -34 l-51 -20 -39 41 c-21 22 -57 49 -79 60 -22 10 -98 50 -170 88
-224 119 -388 200 -402 200 -8 0 -25 7 -38 16 -13 8 -57 20 -97 25 -40 6 -77
15 -82 20 -14 13 -110 11 -123 -2z"/>
<path d="M11846 7811 c-3 -5 -41 -12 -83 -15 -100 -9 -163 -28 -253 -77 -8 -5
-181 -92 -384 -194 -203 -102 -374 -190 -381 -195 -18 -15 -1031 -520 -1043
-520 -6 0 -12 -3 -14 -7 -4 -10 -332 -173 -346 -173 -6 0 -12 -3 -14 -7 -1 -5
-41 -27 -88 -50 -47 -23 -94 -51 -104 -62 -11 -12 -26 -21 -33 -21 -18 0 -203
-183 -203 -201 0 -6 -15 -30 -34 -53 -18 -23 -37 -52 -41 -66 -4 -14 -16 -39
-26 -56 -11 -18 -24 -58 -30 -90 -6 -33 -15 -64 -20 -70 -25 -30 -27 -335 -2
-366 6 -7 16 -37 23 -67 24 -100 90 -212 188 -316 21 -22 41 -48 45 -58 4 -11
16 -21 26 -24 11 -3 22 -11 25 -19 3 -8 12 -14 19 -14 8 0 25 -9 39 -19 35
-28 133 -81 150 -81 7 0 24 -6 38 -13 63 -33 126 -42 282 -41 143 1 215 10
273 34 11 5 38 14 60 20 22 7 45 17 50 24 11 12 340 176 354 176 5 0 11 3 13
8 4 9 152 82 166 82 6 0 12 3 14 8 3 8 48 30 628 324 596 302 1151 583 1205
612 51 27 245 211 269 256 55 100 84 164 95 206 7 27 17 58 21 69 18 43 30
130 30 223 0 99 -15 218 -29 237 -5 5 -16 34 -26 63 -9 29 -32 76 -51 103 -19
28 -34 55 -34 59 0 4 -11 15 -25 24 -14 9 -25 22 -25 29 0 16 -92 107 -108
107 -6 0 -19 11 -28 25 -9 14 -21 25 -26 25 -5 0 -24 11 -41 24 -30 21 -92 53
-177 89 -19 9 -64 21 -100 27 -36 7 -73 16 -82 21 -23 12 -155 12 -162 0z"/>
<path d="M9545 4740 c-3 -5 -27 -10 -53 -10 -64 -1 -202 -23 -227 -36 -11 -6
-38 -17 -60 -24 -22 -7 -44 -16 -50 -20 -5 -4 -35 -15 -65 -25 -30 -10 -62
-23 -70 -30 -8 -7 -219 -114 -469 -238 -250 -125 -459 -231 -466 -237 -17 -14
-472 -240 -484 -240 -5 0 -11 -3 -13 -7 -4 -10 -152 -83 -166 -83 -6 0 -12 -3
-14 -7 -4 -9 -252 -133 -266 -133 -5 0 -12 -7 -16 -15 -3 -8 -12 -15 -20 -15
-14 0 -145 -59 -156 -70 -9 -9 -158 -80 -168 -80 -6 0 -12 -3 -14 -7 -1 -5
-38 -26 -81 -48 -44 -22 -184 -94 -313 -160 -129 -66 -439 -223 -689 -350
-564 -285 -525 -265 -525 -276 0 -5 -5 -9 -12 -9 -6 0 -36 -19 -67 -42 -31
-24 -62 -45 -69 -48 -18 -8 -272 -262 -272 -273 0 -5 -13 -26 -29 -46 -24 -31
-48 -70 -100 -168 -19 -35 -41 -91 -41 -103 0 -6 -9 -28 -19 -48 -11 -20 -25
-68 -32 -107 -7 -38 -16 -77 -20 -85 -39 -74 -38 -434 1 -525 5 -11 13 -48 19
-83 6 -35 20 -84 32 -110 11 -26 27 -60 35 -77 7 -16 19 -49 26 -73 7 -23 16
-42 20 -42 3 0 18 -25 32 -55 28 -62 69 -114 203 -260 110 -120 261 -239 363
-286 25 -11 52 -26 60 -33 8 -8 33 -17 55 -21 22 -3 54 -13 70 -20 17 -7 48
-19 70 -26 22 -6 49 -15 60 -20 38 -15 189 -29 318 -29 130 0 307 18 307 31 0
3 22 9 48 13 26 3 57 12 67 19 11 7 40 19 65 27 25 7 56 19 70 26 99 47 903
450 1205 603 204 104 548 279 765 389 217 110 562 285 765 388 485 246 529
268 535 274 9 9 258 130 268 130 6 0 12 3 14 8 2 4 71 40 153 81 83 40 164 84
182 97 17 13 34 24 37 24 4 0 37 23 75 50 38 28 73 50 78 50 11 0 263 252 263
263 0 5 26 41 58 80 31 40 66 92 78 117 51 108 63 137 75 175 7 22 16 45 20
50 4 6 15 51 24 100 10 50 22 94 26 100 12 13 11 391 -1 413 -5 9 -14 59 -19
111 -6 51 -16 103 -24 115 -8 11 -20 42 -28 69 -7 26 -16 47 -20 47 -3 0 -11
19 -18 43 -7 23 -23 59 -37 79 -13 21 -24 42 -24 48 0 5 -4 10 -10 10 -5 0
-10 5 -10 11 0 6 -16 33 -35 59 -19 26 -35 50 -35 54 0 23 -340 326 -365 326
-4 0 -21 10 -38 23 -46 32 -126 72 -180 88 -26 7 -47 16 -47 20 0 3 -21 12
-47 19 -27 7 -54 17 -60 23 -7 5 -13 6 -13 2 0 -4 -6 -3 -12 3 -7 6 -51 16
-98 22 -47 6 -93 16 -102 21 -24 12 -265 12 -273 -1z"/>
</g>
</svg>
